<?xml version="1.0" standalone="no"?>
<!DOCTYPE svg PUBLIC "-//W3C//DTD SVG 20010904//EN"
 "http://www.w3.org/TR/2001/REC-SVG-20010904/DTD/svg10.dtd">
<svg version="1.0" xmlns="http://www.w3.org/2000/svg"
 width="512.000000pt" height="512.000000pt" viewBox="0 0 512.000000 512.000000"
 preserveAspectRatio="xMidYMid meet">
<metadata>
Created by potrace 1.14, written by Peter Selinger 2001-2017
</metadata>
<g transform="translate(0.000000,512.000000) scale(0.100000,-0.100000)"
fill="#000000" stroke="none">
<path d="M2517 5113 c-9 -9 12 -33 29 -33 8 0 11 -6 7 -17 -4 -11 -8 -12 -11
-5 -2 7 -11 12 -20 11 -11 0 -12 -2 -4 -6 25 -10 11 -19 -25 -15 -21 3 -34 1
-30 -4 4 -4 20 -8 35 -9 17 0 26 -5 24 -14 -1 -7 2 -19 8 -26 8 -10 7 -16 -6
-23 -15 -8 -15 -10 1 -16 14 -5 15 -9 5 -21 -6 -8 -9 -19 -5 -25 3 -5 1 -10
-5 -10 -6 0 -8 -4 -5 -10 7 -12 45 -14 45 -2 0 4 16 8 35 9 19 1 35 -3 35 -8
0 -5 -5 -9 -11 -9 -6 0 -9 -6 -6 -12 2 -7 -3 -21 -11 -31 -15 -16 -14 -18 6
-24 26 -6 29 -23 5 -23 -15 0 -15 -2 -4 -9 12 -8 12 -11 0 -23 -26 -26 -55
-27 -85 -2 -33 27 -74 32 -74 9 0 -8 7 -15 15 -15 8 0 15 -4 15 -10 0 -5 15
-11 33 -11 23 -1 26 -3 10 -6 -13 -2 -23 -8 -23 -13 0 -4 -10 -6 -22 -2 -14 3
-19 2 -14 -6 4 -7 26 -12 48 -12 23 0 39 -3 35 -6 -12 -12 -107 -5 -122 10
-11 11 -12 16 -2 19 7 3 5 6 -5 6 -19 1 -26 41 -8 41 6 0 10 7 10 15 0 8 6 15
13 15 6 0 3 7 -8 16 -17 13 -18 16 -5 24 13 8 12 10 -3 10 -15 0 -17 6 -11 36
6 35 6 36 -22 32 -16 -3 -24 -3 -17 -1 12 4 14 43 2 43 -21 0 -39 -14 -39 -31
0 -12 -9 -21 -27 -25 -51 -11 -49 -12 16 -13 63 -1 79 -12 24 -16 -60 -4 -64
-5 -57 -16 4 -8 25 -9 58 -5 65 7 41 -10 -26 -19 -62 -9 -68 -20 -15 -31 36
-6 38 -8 15 -11 -25 -4 -26 -6 -16 -29 9 -18 16 -23 32 -18 20 6 20 6 2 -8
-10 -8 -16 -20 -12 -26 3 -6 -2 -13 -11 -15 -14 -4 -13 -5 4 -6 12 0 25 -5 28
-11 3 -5 16 -10 27 -10 30 0 19 -6 -24 -14 -30 -6 -38 -4 -38 8 0 27 -103 42
-122 18 -7 -8 -21 -11 -37 -7 -24 5 -25 4 -8 -9 16 -12 16 -15 2 -29 -23 -23
-18 -37 13 -38 26 -1 26 -1 3 -8 -22 -6 -22 -7 10 -18 19 -6 49 -14 67 -18 51
-10 31 -17 -48 -17 -38 0 -70 -4 -70 -9 0 -5 8 -9 18 -10 13 0 12 -2 -5 -9
-28 -11 -30 -27 -4 -35 17 -5 17 -8 -8 -33 -14 -16 -34 -33 -45 -39 -17 -9
-15 -11 14 -21 18 -7 29 -16 25 -22 -7 -12 17 -9 26 3 5 7 53 22 154 47 28 6
72 18 99 26 26 8 62 14 80 14 33 0 138 27 121 31 -5 1 -21 2 -35 3 -32 1 -37
29 -8 44 l23 11 -26 0 c-15 1 -29 8 -32 16 -7 17 9 30 18 15 3 -5 14 -10 23
-9 11 0 12 3 5 6 -7 2 -13 9 -13 14 0 6 3 8 8 6 4 -3 16 -1 27 4 19 7 19 8 -3
8 -13 1 -21 5 -17 10 3 5 -3 12 -12 14 -14 4 -14 5 3 6 22 1 41 42 29 60 -3 5
10 9 28 10 38 0 103 19 72 20 -11 1 -16 5 -10 9 6 4 10 13 10 20 0 6 5 11 10
10 6 -2 9 -9 8 -16 -1 -9 6 -12 18 -9 11 3 19 0 19 -6 0 -7 4 -5 10 3 7 12 12
12 22 2 9 -9 9 -12 -1 -12 -7 0 -10 -4 -7 -9 3 -5 -1 -12 -10 -15 -8 -3 -12
-2 -9 4 3 6 1 10 -4 10 -6 0 -11 -7 -11 -16 0 -8 -4 -12 -10 -9 -14 9 -12 -6
4 -24 7 -9 16 -31 19 -48 5 -27 3 -33 -11 -33 -15 0 -15 2 -2 11 11 8 7 9 -18
5 -23 -4 -38 -1 -49 9 -8 8 -26 14 -41 14 -25 -2 -25 -2 -4 -6 19 -4 21 -7 11
-19 -6 -8 -18 -14 -26 -14 -27 0 -8 -35 22 -41 17 -4 24 -7 18 -8 -7 0 -13 -8
-13 -16 0 -8 -7 -15 -16 -15 -14 0 -14 -2 0 -15 10 -11 36 -15 85 -15 64 0
163 -19 216 -40 85 -36 381 -188 447 -230 46 -30 108 -114 137 -188 11 -25 18
-31 32 -27 25 8 39 -24 16 -36 -14 -8 -13 -14 4 -62 11 -28 19 -72 19 -97 -7
-312 8 -546 37 -576 9 -8 10 -15 3 -19 -8 -5 -7 -12 2 -23 10 -14 10 -15 -2
-4 -8 6 -25 12 -40 12 -22 0 -30 11 -65 87 -54 118 -141 237 -262 359 -57 56
-103 100 -103 97 0 -2 -19 10 -42 29 -23 18 -45 33 -49 33 -4 0 -11 4 -16 9
-5 5 -3 6 5 2 6 -4 12 -4 12 1 0 13 -68 53 -100 60 -17 3 -30 10 -30 15 0 6
-7 7 -16 4 -10 -4 -22 1 -30 11 -13 17 -13 17 -14 -2 -1 -18 -2 -18 -10 3 -7
16 -18 22 -42 24 -47 2 -51 3 -66 11 -7 5 -14 2 -18 -7 -5 -14 -8 -14 -21 -1
-8 8 -31 16 -51 16 -167 5 -281 -3 -292 -21 -3 -5 -14 -8 -25 -6 -11 2 -31 -1
-45 -6 -14 -6 -36 -12 -50 -15 -21 -4 -104 -43 -233 -110 -15 -8 -24 -19 -21
-25 4 -6 2 -8 -4 -4 -6 3 -13 2 -17 -4 -3 -6 -21 -17 -38 -24 -18 -8 -50 -30
-72 -50 -82 -75 -135 -129 -135 -140 0 -6 -9 -17 -21 -24 -14 -9 -19 -20 -16
-33 3 -13 -2 -23 -15 -30 -11 -6 -17 -13 -14 -16 3 -3 -3 -18 -14 -33 -11 -16
-20 -32 -20 -36 0 -4 -7 -16 -17 -26 -15 -17 -15 -19 6 -37 l23 -20 -35 -14
c-28 -12 -35 -21 -39 -50 -2 -24 2 -42 14 -57 12 -15 18 -39 18 -76 0 -73 18
-152 45 -194 61 -97 241 -172 449 -186 182 -13 258 41 365 260 53 106 65 124
89 129 28 6 44 -3 48 -25 1 -7 3 -22 5 -33 5 -35 -12 -85 -29 -85 -12 0 -11
-5 8 -25 20 -21 21 -27 9 -41 -14 -18 -13 -61 2 -80 12 -15 20 -86 9 -79 -5 3
-11 1 -15 -5 -8 -14 36 -91 48 -83 5 3 7 0 5 -8 -3 -8 1 -18 9 -24 7 -5 14
-22 15 -37 3 -36 18 -36 18 -1 0 16 0 47 0 69 -1 33 3 43 19 47 21 5 31 -10
31 -44 0 -15 5 -19 19 -14 13 4 20 0 24 -15 3 -11 13 -23 24 -27 28 -10 31
-21 20 -64 -6 -27 -15 -39 -28 -39 -10 0 -21 -4 -24 -10 -10 -17 -55 -12 -55
6 0 11 6 14 20 9 14 -4 20 -2 20 9 0 39 -98 31 -143 -11 -29 -28 -72 -50 -89
-45 -7 2 -5 -25 3 -33 3 -3 32 4 65 15 73 24 76 24 72 3 -2 -10 2 -17 9 -16
17 4 33 -30 31 -61 -2 -27 -13 -26 -13 1 0 9 -9 17 -22 18 -15 1 -19 -3 -15
-13 4 -11 2 -13 -9 -7 -12 7 -12 6 -1 -8 31 -37 56 -173 39 -209 -4 -10 -4
-18 2 -18 5 0 11 5 13 12 2 6 10 8 16 4 19 -11 14 -26 -9 -26 -11 0 -42 -7
-70 -16 -27 -9 -56 -13 -66 -9 -10 4 -32 7 -48 6 -17 -1 -44 3 -60 10 -17 7
-38 11 -48 10 -10 -1 -29 4 -41 13 -13 8 -32 13 -42 10 -12 -3 -28 4 -43 20
-13 13 -29 22 -35 20 -14 -5 -36 36 -36 66 0 31 -26 23 -42 -12 -8 -18 -13
-28 -12 -21 5 22 -20 32 -40 17 -24 -17 -40 -18 -30 -1 5 8 3 8 -9 -2 -9 -7
-14 -17 -11 -22 3 -5 0 -9 -7 -9 -6 0 -9 -8 -6 -20 3 -10 -1 -27 -9 -37 -7
-10 -13 -25 -14 -33 0 -13 1 -13 10 0 8 13 11 13 19 1 5 -8 15 -11 23 -8 36
13 40 -48 8 -153 -13 -43 -13 -60 0 -60 5 0 7 7 3 16 -3 8 4 25 17 39 16 17
23 37 24 69 0 25 4 42 10 39 5 -3 6 -1 2 5 -14 22 4 32 29 16 22 -14 105 -116
105 -128 0 -3 23 -29 50 -58 45 -47 55 -53 103 -58 28 -3 92 -2 141 2 71 6 92
11 108 27 10 12 25 21 32 21 7 0 33 16 57 35 24 19 48 35 52 35 19 0 120 123
110 134 -4 3 -1 6 5 6 7 0 12 -5 12 -11 0 -5 5 -7 12 -3 8 5 9 2 4 -11 -4 -11
-2 -22 5 -26 9 -5 7 -20 -9 -57 -26 -60 -27 -69 -7 -52 8 7 15 20 15 29 0 9 9
22 20 29 25 16 25 13 -5 -39 -28 -50 -31 -81 -10 -103 22 -22 18 -43 -10 -50
-16 -4 -23 -11 -19 -18 6 -9 9 -9 12 0 5 17 23 15 39 -5 12 -16 13 -14 11 17
-2 22 2 35 10 36 35 4 36 5 18 19 -16 12 -17 18 -8 27 9 9 12 9 12 -2 0 -13 2
-13 10 0 15 23 12 32 -10 25 -24 -8 -25 -3 -5 35 8 16 14 39 12 52 -1 14 3 22
11 20 17 -3 15 30 -8 122 -11 43 -18 82 -15 86 2 4 -5 16 -17 26 -12 11 -18
14 -15 7 4 -6 3 -14 -3 -18 -5 -3 -10 -3 -11 2 0 4 -2 19 -3 32 -2 14 -8 27
-15 29 -6 2 -18 10 -26 19 -13 13 -15 12 -15 -9 -1 -21 -2 -20 -15 7 -7 17
-14 23 -15 15 0 -9 -7 -4 -16 13 -8 15 -19 25 -23 22 -5 -2 -15 3 -22 12 -12
14 -12 16 1 9 8 -4 -3 8 -25 27 -32 28 -44 33 -59 25 -14 -8 -17 -7 -14 4 3 7
13 18 24 23 27 14 59 45 73 72 17 34 13 73 -14 128 -13 28 -25 53 -25 57 0 3
22 -4 49 -17 53 -26 124 -35 286 -36 82 0 108 4 143 21 23 11 42 25 42 30 0 6
6 10 13 10 26 0 138 81 167 121 l30 42 0 -50 c0 -36 5 -55 19 -67 18 -16 19
-16 26 11 3 15 7 30 7 33 1 11 39 31 47 25 6 -3 8 4 6 16 -3 13 0 28 6 36 7 7
7 13 2 13 -5 0 -17 -15 -26 -32 -25 -51 -19 -10 9 57 23 56 24 57 20 21 -7
-50 10 -35 22 19 l8 40 16 -45 c9 -25 17 -37 17 -28 1 14 4 13 25 -5 16 -14
21 -26 15 -31 -12 -13 -12 -73 1 -81 18 -11 11 -25 -13 -25 -13 0 -39 -7 -57
-16 -28 -14 -30 -18 -16 -26 22 -12 46 -3 46 17 0 9 9 15 22 15 22 0 21 0 -4
-28 -14 -15 -32 -38 -41 -52 -13 -19 -17 -21 -17 -7 0 10 -8 17 -20 17 -24 0
-25 -6 -5 -26 23 -23 18 -40 -5 -19 -24 22 -39 13 -19 -11 12 -15 12 -16 -8
-10 -12 4 -24 2 -28 -4 -3 -6 -11 -7 -17 -4 -7 4 -7 0 0 -13 12 -22 5 -63 -10
-63 -7 0 -6 -5 0 -13 15 -18 17 -66 4 -97 l-10 -25 -12 33 c-7 17 -16 32 -22
32 -5 0 -6 -6 -1 -12 4 -7 8 -22 9 -33 1 -11 4 -29 9 -40 6 -17 5 -17 -12 3
l-19 23 -17 -53 c-9 -29 -18 -60 -19 -68 -2 -8 -6 -17 -9 -20 -10 -9 -39 -73
-39 -86 0 -7 -6 -17 -14 -21 -8 -5 -19 -19 -25 -33 -5 -14 -10 -19 -10 -12 -1
7 -15 -2 -32 -20 -29 -31 -30 -32 -23 -8 4 14 10 27 14 30 4 3 2 10 -5 17 -15
14 -25 -3 -25 -43 0 -14 -4 -23 -8 -20 -4 2 -14 -9 -22 -27 -12 -27 -14 -28
-20 -12 -6 17 -7 16 -13 -6 -12 -44 -8 -72 8 -65 21 8 19 1 -9 -29 l-25 -26
-3 28 c-3 31 -35 45 -43 19 -16 -51 -16 -51 -24 -37 -6 10 -11 4 -16 -20 -7
-31 -8 -32 -21 -14 -11 14 -14 15 -14 4 0 -8 4 -19 9 -24 5 -6 5 -20 0 -34 -7
-18 -13 -21 -21 -13 -8 8 -15 5 -25 -15 -7 -14 -13 -34 -13 -44 0 -11 -8 -27
-18 -37 -10 -10 -16 -24 -14 -30 2 -7 -4 -25 -13 -40 l-16 -27 20 22 c26 31
31 29 30 -14 -1 -34 -2 -35 -9 -13 -5 17 -8 19 -9 8 -1 -10 -5 -18 -11 -18 -5
0 -10 -8 -10 -18 0 -10 -11 -25 -25 -32 -14 -7 -25 -19 -25 -26 0 -8 -6 -11
-14 -8 -11 4 -13 0 -9 -17 4 -15 3 -20 -5 -15 -7 4 -12 1 -12 -6 0 -22 -68
-91 -81 -82 -8 4 -9 3 -5 -4 4 -7 1 -12 -8 -12 -25 0 -30 -2 -42 -18 -6 -9
-16 -12 -23 -8 -8 5 -14 0 -18 -13 -4 -17 -8 -19 -19 -10 -11 9 -16 6 -23 -12
-9 -21 -10 -22 -11 -4 -1 18 -2 17 -15 -5 -8 -14 -15 -20 -15 -15 0 6 -5 3
-10 -5 -9 -13 -11 -13 -19 0 -8 12 -11 11 -17 -5 -4 -11 -12 -24 -18 -28 -8
-6 -7 -10 2 -14 6 -2 12 -9 12 -15 0 -6 -7 -5 -16 3 -18 15 -39 59 -35 74 1 5
-7 1 -18 -9 -21 -19 -26 -14 -22 23 2 8 -2 10 -9 6 -7 -4 -16 -2 -20 5 -5 9
-9 9 -14 1 -4 -6 -2 -11 3 -11 6 0 11 -4 11 -10 0 -5 -7 -7 -15 -5 -51 16 -49
14 -29 37 l19 21 -31 -16 c-22 -12 -40 -14 -60 -8 -48 14 -114 52 -114 66 0 7
-9 15 -21 18 -12 3 -18 10 -14 16 3 6 1 11 -4 11 -6 0 -11 7 -11 15 0 8 -5 15
-11 15 -5 0 -8 4 -5 9 3 4 -6 19 -19 31 -14 13 -25 29 -25 37 0 7 -4 13 -10
13 -5 0 -7 6 -4 14 3 7 -2 16 -12 20 -14 5 -14 9 -3 22 11 13 10 18 -5 26 -17
9 -17 11 0 29 16 18 16 19 -12 20 -16 0 -23 3 -16 6 20 8 15 33 -5 26 -15 -5
-16 -3 -5 8 18 20 15 29 -12 29 -18 0 -27 -8 -35 -30 -11 -34 -22 -41 -14 -10
3 13 0 20 -8 20 -12 0 -12 2 -1 9 10 6 9 10 -7 14 -18 4 -21 1 -21 -23 0 -16
-5 -32 -11 -36 -8 -4 -9 0 -4 15 5 15 2 21 -9 21 -19 0 -20 -9 -6 -46 9 -22 8
-25 -3 -16 -16 14 -21 71 -7 106 12 32 -3 35 -17 4 -11 -23 -11 -23 -10 2 1
14 -3 36 -7 49 -6 16 -5 21 3 17 6 -4 11 0 11 8 0 9 -6 16 -12 17 -7 0 -4 4 7
9 20 8 20 9 -1 9 -17 1 -20 6 -17 29 3 19 2 23 -5 14 -7 -10 -11 -6 -15 17 -4
20 -13 31 -24 32 -10 0 -13 3 -7 5 8 3 6 18 -8 46 -11 23 -26 63 -34 89 -8 26
-21 60 -29 76 -8 15 -15 34 -15 42 0 7 -6 11 -15 7 -12 -4 -14 2 -10 28 3 24
-2 41 -16 57 -10 12 -19 29 -19 36 0 8 -9 26 -20 40 -12 15 -20 20 -20 12 0
-11 -2 -11 -10 1 -14 22 -12 33 5 27 8 -4 17 -1 21 5 4 7 3 8 -5 4 -8 -5 -10
2 -9 23 4 41 -14 43 -31 4 -15 -33 -36 -47 -24 -16 5 12 3 14 -8 9 -8 -4 -5 1
6 11 12 10 27 27 35 38 10 14 5 12 -15 -6 -17 -15 -42 -37 -57 -49 -15 -13
-25 -28 -21 -33 3 -6 1 -7 -6 -3 -13 9 -8 18 40 71 28 30 53 115 30 101 -6 -4
-11 -14 -11 -22 0 -8 -4 -14 -9 -14 -5 0 -13 -9 -16 -21 -4 -11 -9 -18 -12
-16 -2 3 2 20 11 39 8 18 16 40 18 48 2 8 9 21 16 28 14 16 16 46 2 37 -5 -3
-10 -13 -10 -21 0 -8 -7 -14 -15 -14 -10 0 -14 9 -13 25 1 14 6 25 10 25 4 0
14 13 23 30 l15 30 -25 -10 c-47 -18 -176 61 -174 107 0 16 1 15 9 -3 14 -35
64 -64 109 -64 39 0 41 1 41 30 0 17 7 44 15 61 14 27 14 30 0 35 -9 4 -19 4
-22 0 -4 -3 1 -6 10 -6 10 0 14 -5 11 -15 -10 -24 -34 -18 -34 9 0 33 -31 69
-53 61 -9 -4 -17 -11 -17 -15 0 -10 30 -21 40 -15 10 6 7 -21 -3 -32 -4 -4
-14 3 -23 15 -15 21 -42 32 -29 12 5 -9 -1 -12 -21 -9 -3 0 -13 -8 -21 -18
-14 -17 -14 -17 -8 2 4 11 8 27 10 35 1 9 11 14 26 13 13 -1 17 0 9 3 -8 4
-20 13 -26 20 -9 11 -18 12 -37 5 -15 -6 -29 -6 -32 -1 -3 4 -19 11 -35 15
-17 4 -30 11 -30 16 0 6 -5 7 -10 4 -6 -4 -8 -11 -5 -16 4 -5 0 -9 -9 -9 -8 0
-17 6 -19 13 -4 8 -6 8 -6 0 -1 -12 -41 -6 -41 7 0 4 -18 4 -40 0 -22 -4 -40
-4 -40 0 0 4 -7 7 -15 7 -18 0 -20 -13 -2 -20 7 -3 4 -6 -6 -6 -14 -1 -17 5
-15 22 2 12 9 21 16 19 8 -1 11 2 7 8 -3 6 -12 8 -18 4 -7 -3 -4 1 5 9 10 8
15 17 11 20 -12 13 -21 7 -32 -23 -5 -16 -16 -30 -23 -30 -10 0 -10 2 -1 8 12
8 14 52 2 52 -4 0 -10 -12 -13 -26 -5 -19 -10 -23 -19 -15 -9 7 -21 6 -40 -4
-15 -8 -35 -11 -44 -8 -12 5 -14 3 -8 -7 6 -10 1 -12 -24 -7 -23 5 -30 3 -25
-5 5 -8 2 -9 -9 -5 -9 3 -19 2 -22 -2 -3 -5 -15 -7 -27 -4 -14 4 -26 0 -34
-12 -8 -11 -14 -14 -14 -7 0 8 -7 9 -24 2 -17 -6 -29 -5 -42 5 -11 8 -23 14
-29 15 -5 0 -4 -4 4 -9 11 -7 9 -10 -8 -16 -12 -4 -27 -3 -34 2 -21 16 -42 9
-41 -14 0 -19 -5 -22 -35 -23 -66 -1 -71 -1 -77 -11 -4 -7 -12 -5 -22 4 -17
14 -52 19 -52 7 0 -3 6 -12 13 -19 10 -10 9 -11 -3 -7 -35 11 -100 15 -100 5
0 -6 -5 -7 -12 -3 -7 4 -8 3 -4 -5 4 -6 3 -18 -3 -25 -9 -10 -5 -13 17 -14 43
-3 61 -7 73 -19 16 -16 3 -32 -20 -26 -11 3 -29 -5 -45 -22 -18 -17 -34 -25
-47 -22 -10 3 -17 1 -13 -4 3 -5 0 -9 -6 -9 -6 0 -8 -6 -4 -12 6 -10 4 -10 -7
0 -18 16 -29 15 -29 -3 0 -9 -7 -15 -16 -13 -23 4 -29 -19 -7 -25 17 -4 17 -5
0 -6 -10 0 -25 -7 -33 -15 -9 -9 -29 -14 -52 -12 -42 3 -76 -10 -66 -26 4 -7
3 -8 -5 -4 -6 4 -9 11 -6 16 3 4 -2 10 -10 14 -13 5 -15 -115 -15 -972 0 -924
1 -975 17 -952 53 77 250 293 282 310 44 22 54 34 70 79 6 19 19 43 28 54 19
20 75 47 102 48 9 0 36 25 61 55 26 32 62 63 85 73 22 10 64 42 93 70 30 28
58 49 63 45 15 -9 47 -78 42 -91 -3 -7 0 -13 7 -13 6 0 9 -4 6 -9 -3 -4 6 -23
19 -41 l24 -33 6 26 c13 51 -29 121 -108 184 -14 10 -32 33 -40 50 -15 27 -15
32 -2 43 8 7 15 19 15 27 0 42 140 123 265 152 50 12 135 37 190 56 55 18 143
46 195 60 52 15 105 34 118 42 13 8 32 11 42 8 14 -4 20 -2 20 9 0 9 5 16 11
16 5 0 7 -5 4 -10 -4 -7 3 -8 22 -4 36 9 103 30 126 39 12 5 17 2 17 -9 0 -9
-6 -16 -14 -16 -23 0 -24 -34 -1 -47 17 -10 14 -11 -21 -6 -25 3 -44 1 -48 -6
-5 -7 2 -11 18 -11 34 0 41 -15 8 -18 -15 -1 -32 -8 -37 -16 -7 -10 -16 -11
-27 -5 -9 5 -25 6 -35 2 -16 -6 -15 -8 7 -14 l25 -7 -27 -1 c-16 -1 -27 -5
-25 -10 1 -5 -7 -16 -17 -24 -16 -11 -16 -15 -5 -22 8 -5 11 -5 7 0 -4 4 0 14
10 21 24 19 32 17 32 -6 0 -23 19 -26 39 -7 11 10 11 8 0 -10 -11 -18 -19 -21
-54 -17 -22 3 -46 13 -53 22 -9 12 -15 13 -24 4 -9 -9 -9 -12 2 -12 10 0 9 -4
-4 -13 -15 -11 -15 -13 10 -15 35 -3 38 -6 26 -29 -8 -13 -7 -22 5 -35 14 -16
14 -18 -1 -24 -9 -3 -13 -10 -10 -15 3 -5 -1 -9 -8 -9 -8 -1 -4 -8 9 -19 18
-15 20 -20 8 -25 -8 -3 -15 -15 -15 -27 0 -15 -5 -19 -15 -15 -12 4 -13 2 -3
-14 7 -10 14 -17 16 -15 3 2 14 -1 25 -7 17 -9 19 -8 14 6 -9 22 0 20 13 -3 9
-17 7 -19 -11 -16 -15 3 -19 0 -15 -10 3 -9 0 -12 -9 -9 -8 3 -11 13 -7 22 5
15 4 15 -11 3 -15 -12 -17 -11 -17 9 0 16 -4 20 -16 16 -9 -3 -20 -6 -26 -6
-6 0 -5 -7 3 -17 10 -11 10 -14 2 -9 -29 17 -11 -6 20 -25 26 -17 28 -20 8
-16 -28 7 -61 -12 -61 -33 0 -13 1 -13 10 0 10 17 15 14 25 -19 5 -17 4 -21
-5 -16 -9 5 -10 2 -6 -13 5 -16 0 -22 -24 -30 -31 -11 -38 -26 -19 -38 6 -3 8
-17 5 -29 -5 -19 -1 -24 16 -28 20 -4 20 -4 -4 -6 -15 0 -30 -6 -33 -12 -4 -6
-13 -8 -21 -5 -16 6 -20 -29 -4 -39 5 -3 7 0 4 8 -3 8 1 17 10 20 18 7 24 -9
16 -48 -5 -28 -6 -29 -18 -10 -6 11 -12 14 -12 7 0 -7 7 -23 15 -35 12 -18 13
-30 4 -58 -14 -43 -20 -232 -8 -240 5 -3 13 -20 19 -37 5 -18 5 -30 1 -27 -5
2 -17 -5 -27 -16 -26 -29 -34 -191 -10 -218 8 -9 16 -31 18 -48 1 -17 7 -29
13 -27 6 3 22 -14 34 -37 13 -23 19 -39 12 -35 -6 4 -11 2 -11 -4 0 -14 22
-37 34 -36 5 1 14 -8 20 -19 6 -11 13 -22 16 -25 10 -10 10 -31 0 -25 -5 3
-10 1 -10 -4 0 -6 -5 -11 -11 -11 -5 0 -7 5 -4 10 3 6 -2 10 -11 10 -16 0 -16
-2 1 -20 10 -12 24 -19 30 -16 7 2 19 -4 27 -13 13 -15 13 -21 1 -36 -10 -15
-15 -16 -26 -6 -8 8 -8 11 0 9 11 -3 13 0 13 30 0 14 -2 15 -10 2 -5 -8 -10
-11 -10 -6 0 24 -26 -17 -28 -46 -2 -18 -7 -35 -12 -36 -20 -7 -9 -23 13 -20
23 3 27 -1 27 -28 0 -11 -6 -15 -19 -11 -12 3 -22 -1 -25 -10 -3 -8 -10 -11
-16 -8 -15 9 -45 -11 -45 -31 0 -12 -9 -18 -32 -20 -18 -1 -33 2 -33 7 0 5 -6
9 -14 9 -7 0 -16 9 -19 20 -4 15 0 20 13 20 10 0 21 7 24 16 4 10 2 13 -6 8
-8 -5 -9 -2 -5 9 3 10 4 24 1 32 -8 20 -40 19 -48 -1 -3 -8 -2 -13 3 -10 5 3
11 0 14 -8 9 -23 -17 -13 -59 23 -21 18 -33 30 -27 27 8 -4 13 -1 13 8 0 8 2
20 3 28 2 7 2 10 0 6 -3 -5 -9 -8 -14 -8 -10 0 1 32 15 42 6 4 4 9 -7 14 -21
8 -22 27 -2 44 13 11 13 15 3 21 -9 6 -9 9 -1 9 6 0 11 8 10 18 -1 20 -25 25
-44 9 -7 -5 -13 -6 -13 -3 0 4 -9 2 -20 -4 -11 -6 -20 -17 -20 -25 0 -8 -9
-15 -21 -15 -16 0 -19 4 -14 21 6 19 5 20 -15 9 -30 -16 -50 -6 -43 21 l6 23
9 -23 c4 -12 12 -19 18 -16 5 3 20 8 32 10 12 3 29 11 37 20 14 13 13 15 -4
15 -12 0 -16 3 -9 8 9 5 8 10 -2 19 -15 15 -29 0 -18 -19 4 -7 3 -10 -1 -5 -5
4 -17 0 -27 -10 -16 -14 -18 -14 -18 0 0 8 6 17 12 20 7 2 3 3 -8 1 -12 -2
-28 4 -35 14 -7 9 -10 14 -5 10 4 -4 14 -2 21 5 9 9 9 14 -2 25 -7 7 -11 17
-8 21 2 5 -7 13 -20 19 -18 9 -26 8 -32 -1 -4 -7 -19 -18 -33 -25 -24 -14 -24
-13 3 13 15 14 24 31 21 37 -4 7 -2 8 4 4 17 -10 15 3 -3 20 -9 9 -15 11 -15
4 0 -6 -5 -8 -10 -5 -7 5 -8 11 -1 18 5 7 8 34 6 62 -1 27 2 62 7 77 8 21 7
33 -3 45 -8 9 -9 14 -3 10 7 -4 15 0 18 9 5 12 2 15 -11 10 -15 -6 -15 -4 2
14 14 16 16 23 7 32 -9 9 -12 9 -12 -1 0 -14 -67 -80 -91 -90 -16 -5 -15 -11
2 -65 22 -73 27 -187 10 -242 -9 -29 -10 -47 -3 -60 10 -20 9 -38 -7 -119 -5
-28 -7 -76 -4 -107 3 -32 2 -70 -2 -85 -7 -26 -8 -26 -15 -8 -5 11 -9 37 -9
58 -1 23 -5 36 -11 32 -5 -3 -28 31 -50 76 -40 83 -59 113 -67 105 -2 -2 12
-35 31 -72 54 -108 86 -194 86 -236 l0 -38 254 0 c245 0 254 1 259 20 3 13 11
18 20 14 9 -3 25 0 37 6 20 11 21 10 15 -10 -6 -20 -5 -21 14 -11 19 11 25 8
22 -11 0 -5 6 -8 14 -8 8 0 15 6 15 13 0 9 2 9 9 -1 7 -11 9 -11 14 2 4 10 1
16 -9 16 -11 0 -14 6 -10 16 3 9 6 25 6 36 0 18 5 20 35 15 27 -4 35 -2 35 10
0 9 -6 13 -14 10 -11 -4 -13 -1 -9 10 4 11 2 14 -5 9 -7 -4 -12 -2 -12 4 0 7
6 10 14 7 7 -3 19 0 25 6 8 8 11 5 12 -13 1 -14 1 -28 0 -32 0 -5 4 -8 9 -8 6
0 10 5 10 12 0 6 3 8 7 4 5 -4 0 -13 -10 -21 -15 -11 -16 -13 -2 -19 8 -3 15
0 15 5 0 6 9 9 20 6 11 -3 23 -1 26 4 3 5 -1 9 -8 9 -9 0 -9 3 2 10 10 6 11
10 3 10 -7 0 -13 7 -13 16 0 14 2 14 15 0 9 -8 14 -21 13 -28 -2 -9 6 -12 23
-10 26 2 45 -19 34 -38 -3 -5 -1 -12 5 -15 6 -4 10 -3 9 2 -3 20 2 34 11 28 5
-3 19 4 30 15 12 12 25 19 28 15 4 -4 -1 -11 -11 -16 -9 -6 -17 -17 -17 -25 0
-8 4 -13 9 -10 4 3 17 -2 27 -10 19 -15 19 -15 0 -10 -15 5 -17 4 -8 -7 7 -8
9 -17 6 -20 -4 -4 258 -7 581 -7 512 0 587 2 582 14 -3 8 -36 61 -72 117 l-67
102 -23 -29 c-13 -16 -25 -27 -28 -24 -3 3 8 20 25 39 36 40 25 50 126 -109
78 -125 71 -114 76 -109 3 2 -29 58 -70 123 -41 66 -71 123 -67 127 7 7 214
-2 426 -19 l89 -7 -91 -113 c-50 -61 -87 -112 -82 -112 5 0 51 52 102 115 51
63 96 112 101 109 5 -3 40 -52 78 -109 38 -57 74 -107 81 -110 17 -11 -6 27
-78 133 -35 50 -60 92 -56 93 64 6 446 -19 481 -32 33 -13 28 -33 -7 -26 -29
6 -29 6 -17 -24 10 -27 8 -33 -11 -49 -13 -10 -23 -21 -23 -25 0 -3 -12 -22
-26 -41 l-26 -34 164 0 164 0 -4 40 c-3 28 0 40 9 40 8 0 7 4 -4 13 -13 9 -16
24 -14 65 2 29 0 55 -5 58 -5 3 -6 10 -2 15 11 18 14 78 4 84 -5 3 -10 19 -10
36 0 16 -4 29 -9 29 -6 0 -9 -8 -8 -18 1 -25 -73 -134 -89 -130 -8 2 -68 84
-134 183 l-120 180 47 3 c26 2 110 -7 185 -19 76 -12 140 -21 142 -18 2 2 6
17 10 32 5 20 3 27 -4 22 -10 -6 -154 -6 -225 0 -16 1 -56 3 -87 4 -60 1 -69
9 -43 39 22 24 134 161 169 205 30 38 46 43 102 31 34 -7 99 -100 113 -162 6
-23 10 -29 11 -17 9 67 7 91 -7 109 -12 16 -14 17 -10 3 10 -28 -9 -20 -22 10
-9 19 -9 29 -2 31 8 3 8 9 1 23 -9 16 -6 21 22 32 19 8 38 11 44 6 14 -11 24
-1 24 23 0 11 -7 18 -20 18 -22 0 -70 20 -70 29 0 3 9 12 21 19 16 10 19 20
15 38 -8 30 16 58 44 51 13 -3 20 2 26 22 l7 26 7 -25 8 -25 1 24 c1 29 48
150 65 165 37 35 104 84 109 80 3 -3 4 3 3 13 -1 14 5 17 24 15 13 -1 27 -8
31 -14 6 -9 11 -9 22 0 20 17 32 81 18 95 -13 13 -15 67 -2 67 25 0 143 -62
173 -92 27 -25 44 -33 73 -34 47 -1 77 -33 73 -77 -3 -28 1 -32 42 -48 28 -10
71 -42 113 -83 37 -36 72 -66 78 -66 5 0 9 29 9 65 0 62 -1 65 -19 55 -33 -17
-46 -11 -23 11 12 11 27 17 32 14 6 -4 10 7 10 25 0 22 -4 29 -12 23 -7 -4
-29 -8 -48 -9 -19 0 -45 -4 -56 -8 -14 -5 -23 -3 -27 7 -10 28 11 41 65 42 29
0 58 4 65 8 19 12 17 203 -2 211 -8 3 -15 11 -15 17 0 8 4 8 15 -1 13 -11 15
184 15 1749 l0 1761 -1299 0 c-714 0 -1301 -3 -1304 -7z m533 -38 c0 -8 -4
-15 -10 -15 -5 0 -7 7 -4 15 4 8 8 15 10 15 2 0 4 -7 4 -15z m-177 -15 c-3
-12 -13 -20 -27 -19 -11 0 -15 3 -8 6 6 2 12 11 12 19 0 8 6 14 14 14 9 0 12
-7 9 -20z m1700 -50 c-3 -11 -12 -20 -19 -20 -17 0 -18 12 -2 28 18 18 27 15
21 -8z m-93 -30 c0 -5 -5 -10 -11 -10 -5 0 -7 5 -4 10 3 6 8 10 11 10 2 0 4
-4 4 -10z m96 -17 c-10 -11 -36 -12 -36 -2 0 5 10 9 22 9 12 0 18 -3 14 -7z
m-1596 -13 c0 -5 -12 -10 -27 -9 l-28 1 25 8 c14 4 26 8 28 9 1 1 2 -3 2 -9z
m-207 -7 c-7 -2 -19 -2 -25 0 -7 3 -2 5 12 5 14 0 19 -2 13 -5z m-183 -23 c11
-7 7 -10 -18 -10 -20 0 -31 4 -27 10 8 13 26 13 45 0z m1910 1 c0 -6 -9 -9
-20 -8 -11 1 -20 5 -20 9 0 4 9 8 20 8 11 0 20 -4 20 -9z m-1720 -21 c0 -5 13
-10 29 -10 16 0 34 -7 41 -15 11 -13 6 -15 -31 -16 -34 0 -39 -2 -24 -9 19 -8
19 -9 -2 -9 l-23 -1 20 -20 c22 -22 27 -50 8 -50 -7 -1 -2 -7 11 -14 14 -8 19
-16 13 -20 -6 -3 -9 -18 -6 -31 3 -20 0 -25 -16 -25 -11 0 -20 7 -20 15 0 8 7
15 16 15 12 0 6 9 -17 30 -19 16 -38 30 -43 30 -5 0 0 11 13 23 18 20 19 26 8
35 -8 7 -18 8 -22 4 -5 -4 -5 -2 -1 5 3 6 2 14 -4 18 -6 3 0 16 13 30 24 26
37 31 37 15z m1803 -10 c6 -23 -3 -26 -22 -7 -11 10 -13 10 -7 0 4 -7 5 -13 2
-13 -3 0 -17 6 -33 13 l-27 12 34 6 c19 4 38 7 41 8 4 0 9 -8 12 -19z m-73
-45 c0 -2 -11 -2 -25 -1 -14 0 -25 4 -25 8 0 3 -3 13 -6 22 -3 9 -1 16 6 16 6
0 9 -4 5 -9 -3 -5 -1 -12 5 -16 6 -3 10 4 10 17 0 22 1 21 15 -6 8 -15 15 -30
15 -31z m245 45 c-3 -5 -14 -10 -23 -9 -14 0 -13 2 3 9 27 11 27 11 20 0z
m-1775 -42 c0 -18 0 -42 1 -53 0 -20 -30 -50 -40 -39 -3 4 0 9 7 11 22 8 13
23 -15 24 -24 2 -25 2 -5 6 24 5 31 23 8 23 -8 0 -18 5 -22 11 -4 7 0 9 14 5
12 -4 23 -2 28 5 4 8 3 9 -4 5 -7 -4 -12 -1 -12 8 0 13 13 23 32 25 4 1 7 -14
8 -31z m76 20 c5 -7 2 -9 -8 -6 -8 4 -21 2 -29 -3 -11 -7 -11 -9 3 -9 31 0 37
-30 11 -56 -30 -30 -33 -30 -32 -1 1 12 -1 37 -5 55 -6 30 -5 32 23 32 17 0
33 -5 37 -12z m1174 -23 c0 -8 -4 -15 -10 -15 -5 0 -7 -7 -4 -15 4 -9 0 -15
-10 -15 -19 0 -19 1 -6 34 10 28 30 35 30 11z m80 -16 c0 -20 -15 -26 -25 -9
-9 15 3 43 15 35 5 -3 10 -15 10 -26z m53 24 c-7 -2 -21 -2 -30 0 -10 3 -4 5
12 5 17 0 24 -2 18 -5z m385 -11 c2 -7 -3 -12 -12 -12 -9 0 -16 7 -16 16 0 17
22 14 28 -4z m-1903 -2 c3 -5 -1 -10 -10 -10 -9 0 -13 5 -10 10 3 6 8 10 10
10 2 0 7 -4 10 -10z m1408 -20 c-5 -20 3 -24 41 -20 12 1 16 -3 12 -12 -3 -7
-9 -21 -12 -30 -8 -22 -44 -24 -44 -3 0 8 6 15 13 15 7 1 5 6 -5 14 -18 13
-23 37 -11 49 10 11 11 8 6 -13z m301 -7 c-1 -16 -3 -31 -3 -35 -1 -5 -8 -8
-17 -8 -14 0 -14 -3 -4 -15 16 -20 5 -19 -26 2 -19 12 -22 18 -12 24 8 6 9 9
1 9 -17 0 -4 38 16 43 39 11 47 7 45 -20z m66 7 c0 -5 -7 -10 -15 -10 -8 0
-15 5 -15 10 0 6 7 10 15 10 8 0 15 -4 15 -10z m-1765 -9 c3 -5 2 -12 -3 -15
-5 -3 -9 1 -9 9 0 17 3 19 12 6z m1529 0 c3 -5 0 -11 -8 -14 -15 -6 -26 1 -26
15 0 11 27 10 34 -1z m-1024 -11 c-19 -13 -30 -13 -30 0 0 6 10 10 23 10 18 0
19 -2 7 -10z m1390 -11 c0 -5 -11 -9 -25 -9 -14 0 -25 4 -25 10 0 5 7 7 15 4
8 -4 15 -1 15 6 0 6 5 8 10 5 6 -3 10 -10 10 -16z m-153 -4 c0 -8 -4 -12 -9
-9 -4 3 -8 9 -8 15 0 5 4 9 8 9 5 0 9 -7 9 -15z m-221 -16 c-15 -9 -16 -13 -5
-20 10 -6 11 -9 2 -9 -7 0 -13 -9 -13 -20 0 -24 -25 -27 -34 -4 -9 24 -7 31 4
14 5 -8 10 -10 11 -5 0 6 2 18 4 28 2 9 -1 15 -5 12 -5 -3 -11 -1 -15 5 -4 6
9 10 32 10 32 -1 35 -2 19 -11z m-2021 -9 c-3 -5 -10 -10 -16 -10 -5 0 -9 5
-9 10 0 6 7 10 16 10 8 0 12 -4 9 -10z m2101 -12 c3 -25 -26 -55 -61 -62 -16
-3 -24 -3 -17 0 6 3 12 14 12 25 0 19 9 23 45 19 l20 -2 -20 22 c-19 21 -19
22 -1 19 11 -2 20 -12 22 -21z m284 2 c0 -5 -4 -10 -10 -10 -5 0 -10 5 -10 10
0 6 5 10 10 10 6 0 10 -4 10 -10z m-1770 -14 c0 -8 6 -17 13 -19 6 -3 -3 -6
-20 -6 -33 -1 -47 22 -20 32 21 9 27 7 27 -7z m50 -2 c0 -2 -7 -4 -15 -4 -8 0
-15 4 -15 10 0 5 7 7 15 4 8 -4 15 -8 15 -10z m-120 -4 c0 -5 -4 -10 -10 -10
-5 0 -7 -7 -4 -15 4 -10 0 -15 -11 -15 -9 0 -14 4 -10 9 3 5 1 12 -5 16 -6 4
-8 11 -5 16 8 12 45 12 45 -1z m130 -20 c0 -5 -6 -10 -12 -10 -10 0 -10 -2 -1
-8 8 -5 9 -13 3 -22 -13 -20 -12 -30 1 -30 5 0 7 5 4 10 -3 6 4 10 15 10 15 0
20 -5 17 -15 -4 -8 -2 -17 4 -20 19 -12 -4 -27 -32 -21 -15 3 -30 2 -32 -2 -7
-12 13 -72 24 -72 6 0 7 -5 3 -11 -4 -7 -15 -1 -31 17 -30 36 -40 73 -22 85
12 7 11 9 -2 9 -8 0 -24 7 -35 15 -18 15 -18 15 0 8 13 -4 17 -3 12 5 -4 7 -2
12 6 12 9 0 9 3 -2 10 -12 7 -8 10 15 10 23 0 27 -3 15 -10 -10 -6 -11 -10 -2
-10 19 0 27 4 28 15 0 6 2 16 2 23 2 14 22 17 22 2z m1604 2 c3 -5 2 -18 -1
-30 -6 -23 -39 -30 -45 -10 -3 7 -9 8 -18 3 -10 -6 -8 -10 8 -16 30 -11 27
-24 -10 -42 l-32 -15 39 -8 40 -7 -39 -14 c-22 -7 -42 -11 -44 -8 -3 3 0 5 6
5 7 0 12 5 12 10 0 6 -7 10 -15 10 -8 0 -15 -4 -15 -10 0 -5 -1 -13 -2 -17 -6
-16 57 -22 79 -8 33 22 40 18 10 -5 -14 -11 -31 -20 -37 -20 -7 0 -18 -7 -25
-16 -8 -11 -19 -14 -33 -10 -22 7 -30 31 -13 38 5 2 3 12 -6 23 -15 20 -15 19
-8 -3 6 -21 5 -23 -13 -13 -27 14 -42 37 -19 28 9 -3 16 -3 16 1 -4 22 5 30
44 42 56 18 65 27 36 39 -13 5 -19 10 -12 10 6 1 14 10 18 20 3 11 12 18 20
15 7 -3 16 -1 20 5 7 13 32 14 39 3z m43 -14 c-3 -8 -6 -5 -6 6 -1 11 2 17 5
13 3 -3 4 -12 1 -19z m-137 8 c0 -3 -4 -8 -10 -11 -5 -3 -10 -1 -10 4 0 6 5
11 10 11 6 0 10 -2 10 -4z m-1660 -47 c0 -11 5 -17 10 -14 16 10 12 -2 -7 -21
-17 -17 -16 -17 12 -10 29 7 28 6 -10 -22 -46 -33 -109 -54 -82 -27 9 8 23 15
31 15 9 0 16 7 16 15 0 8 -4 15 -10 15 -18 0 -11 20 8 21 12 0 10 3 -8 10 -17
7 -26 7 -28 0 -2 -6 -8 -11 -13 -11 -4 0 -6 7 -3 15 4 8 17 15 31 15 13 0 21
4 18 10 -3 6 3 10 14 10 15 0 21 -6 21 -21z m1810 11 c0 -13 -11 -13 -30 0
-12 8 -11 10 8 10 12 0 22 -4 22 -10z m-2166 -22 c-4 -13 -12 -26 -18 -30 -7
-5 -6 -8 4 -9 8 0 -7 -6 -35 -14 -59 -16 -69 -13 -23 6 l33 14 -40 6 -40 6 45
2 c53 2 37 20 -20 23 -24 1 -16 3 25 8 33 4 64 7 68 8 5 1 5 -8 1 -20z m56 12
c0 -5 -5 -10 -11 -10 -5 0 -7 5 -4 10 3 6 8 10 11 10 2 0 4 -4 4 -10z m-345
-31 c17 -8 16 -9 -7 -6 -32 5 -38 -8 -9 -16 27 -7 17 -47 -11 -47 -17 0 -18 3
-9 14 10 11 8 16 -7 21 -14 4 -18 12 -15 25 6 21 26 24 58 9z m125 -10 c0 -5
-7 -9 -16 -9 -8 0 -12 -5 -9 -10 3 -6 -1 -17 -9 -26 -15 -15 -17 -14 -15 4 0
4 -10 10 -23 14 -22 6 -21 6 5 7 15 1 27 5 27 10 0 5 -10 7 -22 4 -20 -4 -21
-3 -5 7 9 6 21 9 26 5 5 -3 12 -1 16 5 7 12 25 4 25 -11z m63 -16 c-7 -2 -19
-2 -25 0 -7 3 -2 5 12 5 14 0 19 -2 13 -5z m-16 -39 c-3 -3 -12 -4 -19 -1 -8
3 -5 6 6 6 11 1 17 -2 13 -5z m298 -4 c3 -5 -1 -10 -9 -10 -9 0 -16 5 -16 10
0 6 4 10 9 10 6 0 13 -4 16 -10z m-310 -20 c-3 -5 -16 -10 -28 -10 -18 0 -19
2 -7 10 20 13 43 13 35 0z m25 -20 c0 -5 -7 -10 -15 -10 -8 0 -15 5 -15 10 0
6 7 10 15 10 8 0 15 -4 15 -10z m-175 -17 c3 -10 1 -19 -6 -22 -8 -2 -7 -6 2
-12 24 -14 4 -19 -34 -7 -44 13 -48 28 -9 29 26 0 26 1 5 9 -31 13 -29 20 6
20 18 0 31 -6 36 -17z m242 1 c-3 -3 -12 -4 -19 -1 -8 3 -5 6 6 6 11 1 17 -2
13 -5z m467 -9 c3 -10 -1 -15 -13 -15 -10 0 -18 7 -18 15 0 8 6 15 13 15 6 0
14 -7 18 -15z m-499 -15 c-3 -5 -1 -10 6 -10 7 0 10 -2 7 -5 -8 -9 -38 6 -32
16 3 5 10 9 15 9 6 0 7 -4 4 -10z m412 4 c-3 -3 -12 -4 -19 -1 -8 3 -5 6 6 6
11 1 17 -2 13 -5z m-482 -24 c-3 -5 -10 -10 -16 -10 -5 0 -9 5 -9 10 0 6 7 10
16 10 8 0 12 -4 9 -10z m2195 -10 c0 -5 -7 -10 -15 -10 -8 0 -15 5 -15 10 0 6
7 10 15 10 8 0 15 -4 15 -10z m-2333 -14 c3 -3 2 -10 -2 -16 -5 -8 -11 -6 -19
6 -7 9 -17 14 -22 11 -6 -3 -16 -1 -24 4 -11 8 -4 9 24 5 21 -3 41 -7 43 -10z
m-87 -8 c0 -4 -9 -8 -21 -8 -11 0 -18 4 -15 8 3 5 12 9 21 9 8 0 15 -4 15 -9z
m2130 3 c0 -5 -7 -11 -15 -15 -15 -5 -20 5 -8 17 9 10 23 9 23 -2z m105 -11
c-3 -5 -11 -10 -16 -10 -6 0 -7 5 -4 10 3 6 11 10 16 10 6 0 7 -4 4 -10z m177
-9 c-3 -9 -10 -19 -16 -23 -11 -7 -12 -11 -15 -44 -1 -19 -44 -12 -68 11 -18
19 -7 38 18 30 12 -4 26 2 41 17 26 27 49 32 40 9z m-226 -13 c17 -19 17 -21
2 -15 -10 3 -20 2 -23 -3 -4 -6 -12 -10 -18 -9 -9 0 -9 2 -1 5 7 3 10 14 7 24
-7 26 9 25 33 -2z m-2176 2 c0 -5 -3 -10 -7 -10 -5 0 -19 -3 -33 -6 l-25 -6
25 15 c31 18 40 20 40 7z m1615 -37 c-3 -21 -7 -47 -9 -58 -3 -21 -36 -35 -36
-16 0 6 5 11 10 11 6 0 9 3 8 8 -2 8 12 73 19 85 10 17 13 5 8 -30z m533 -14
c-2 -6 -8 -10 -13 -10 -5 0 -11 4 -13 10 -2 6 4 11 13 11 9 0 15 -5 13 -11z
m62 -15 c0 -8 -4 -12 -10 -9 -5 3 -10 10 -10 16 0 5 5 9 10 9 6 0 10 -7 10
-16z m-990 -20 c0 -8 -5 -12 -10 -9 -6 4 -8 11 -5 16 9 14 15 11 15 -7z m1070
6 c-8 -5 -19 -10 -25 -10 -5 0 -3 5 5 10 8 5 20 10 25 10 6 0 3 -5 -5 -10z
m-325 -10 c3 -5 11 -10 16 -10 6 0 8 4 5 9 -3 5 6 9 19 9 28 0 27 0 19 -22 -7
-19 -35 -21 -52 -4 -7 7 -12 8 -12 4 0 -5 -7 -3 -15 4 -13 11 -14 10 -9 -4 3
-9 1 -16 -5 -16 -6 0 -11 2 -11 4 0 2 -3 11 -6 20 -5 12 0 16 19 16 14 0 29
-4 32 -10z m465 -11 c0 -5 -4 -9 -10 -9 -5 0 -10 7 -10 16 0 8 5 12 10 9 6 -3
10 -10 10 -16z m-306 0 c-3 -6 0 -15 7 -20 11 -7 11 -9 -2 -9 -20 0 -33 27
-16 34 18 7 19 7 11 -5z m-127 -45 c-3 -3 -12 -4 -19 -1 -8 3 -5 6 6 6 11 1
17 -2 13 -5z m599 -24 c-1 -30 -10 -38 -21 -20 -8 12 3 50 14 50 5 0 8 -13 7
-30z m-445 2 c10 -5 15 -19 15 -42 -2 -43 -12 -61 -31 -53 -8 3 -15 0 -15 -6
0 -9 20 -15 42 -13 3 1 9 -5 11 -13 4 -9 -4 -16 -23 -20 -33 -7 -74 10 -64 27
4 6 -1 17 -10 24 -18 13 -13 40 5 29 5 -3 6 1 3 10 -5 11 -2 14 12 9 18 -6 18
-6 2 11 -16 17 -16 19 0 31 19 15 29 16 53 6z m-125 -39 c-4 -25 -26 -28 -26
-4 0 12 6 21 14 21 8 0 13 -8 12 -17z m424 -28 c0 -8 -7 -15 -15 -15 -8 0 -15
7 -15 15 0 8 7 15 15 15 8 0 15 -7 15 -15z m45 5 c3 -5 1 -10 -4 -10 -6 0 -11
5 -11 10 0 6 2 10 4 10 3 0 8 -4 11 -10z m90 0 c3 -5 -1 -10 -9 -10 -9 0 -16
5 -16 10 0 6 4 10 9 10 6 0 13 -4 16 -10z m-95 -34 c0 -3 -4 -8 -10 -11 -5 -3
-10 -1 -10 4 0 6 5 11 10 11 6 0 10 -2 10 -4z m-400 -62 c31 -11 32 -12 10
-14 -32 -3 -84 1 -89 6 -9 8 22 33 33 26 6 -4 27 -12 46 -18z m446 11 c-1 -8
-5 -18 -9 -21 -4 -4 -2 -13 4 -21 9 -9 8 -13 0 -13 -6 0 -11 -10 -11 -23 0
-29 -7 -37 -25 -30 -10 3 -11 11 -5 28 5 13 6 26 2 30 -3 3 2 3 12 -1 16 -6
17 -4 7 14 -9 17 -9 22 0 22 8 0 8 4 -1 15 -10 12 -9 15 8 15 12 0 19 -6 18
-15z m-186 -30 c0 -8 0 -17 0 -20 0 -14 -15 -4 -22 14 -5 15 -3 21 7 21 8 0
15 -7 15 -15z m-173 -21 c-3 -3 -12 -4 -19 -1 -8 3 -5 6 6 6 11 1 17 -2 13 -5z
m-87 -14 c-8 -5 -10 -10 -5 -10 6 0 11 -9 12 -20 1 -11 -4 -20 -12 -20 -7 0
-12 -7 -11 -16 2 -26 -21 -27 -28 -2 -5 14 -9 18 -13 11 -2 -7 -11 -13 -18
-13 -7 0 -16 -6 -18 -12 -4 -9 -6 -8 -6 2 0 19 28 54 52 63 10 4 16 3 12 -2
-3 -5 -1 -12 5 -16 5 -3 10 3 10 14 0 15 -8 21 -32 24 -24 3 -19 4 17 5 36 1
46 -1 35 -8z m-100 -34 c0 -3 -4 -8 -10 -11 -5 -3 -10 -1 -10 4 0 6 5 11 10
11 6 0 10 -2 10 -4z m595 -16 c3 -5 2 -10 -4 -10 -5 0 -13 5 -16 10 -3 6 -2
10 4 10 5 0 13 -4 16 -10z m-65 -30 c0 -5 -4 -10 -10 -10 -5 0 -10 5 -10 10 0
6 5 10 10 10 6 0 10 -4 10 -10z m67 4 c-3 -3 -12 -4 -19 -1 -8 3 -5 6 6 6 11
1 17 -2 13 -5z m-549 -201 c-10 -2 -28 -2 -40 0 -13 2 -5 4 17 4 22 1 32 -1
23 -4z m-1618 -171 c0 -4 -9 -8 -20 -9 -11 -1 -18 2 -15 8 7 11 35 12 35 1z
m1 -35 c21 4 30 1 35 -11 3 -9 15 -16 26 -16 14 0 18 5 14 15 -5 14 -4 14 16
0 13 -8 31 -15 41 -15 9 0 20 -7 23 -15 4 -10 20 -15 46 -15 23 0 37 4 33 10
-12 20 31 -4 69 -38 21 -19 41 -30 45 -26 9 13 31 16 31 5 0 -5 19 -28 43 -50
35 -34 40 -43 31 -58 -7 -10 -21 -17 -33 -15 -11 2 -21 -1 -21 -5 0 -5 -13
-10 -29 -11 -16 -1 -48 -9 -71 -17 -23 -8 -46 -12 -51 -9 -5 3 -9 0 -9 -5 0
-6 -11 -11 -24 -11 -14 0 -28 -4 -31 -10 -8 -12 -63 -27 -149 -39 -78 -11
-144 -2 -208 29 -23 11 -48 20 -55 20 -7 0 -13 4 -13 9 0 5 -15 12 -32 15 -18
3 -45 12 -59 20 -14 7 -43 16 -63 20 -48 9 -86 26 -86 39 0 15 31 47 46 47 7
0 16 9 19 20 4 12 18 23 35 27 16 3 28 10 27 16 -3 14 94 29 108 17 6 -5 27
-5 47 -1 20 5 48 6 62 4 31 -6 35 12 5 20 -20 5 -20 7 -6 21 19 19 53 21 61 4
3 -9 8 -8 16 5 9 13 15 16 22 9 6 -6 24 -8 39 -5z m1769 -17 c0 -5 8 -10 17
-10 36 0 1 -13 -38 -14 -65 -1 -62 29 4 33 9 0 17 -3 17 -9z m-658 -22 c-7 -7
-12 -8 -12 -2 0 6 3 14 7 17 3 4 9 5 12 2 2 -3 -1 -11 -7 -17z m-1933 -162
l22 -23 -23 -7 c-41 -10 -48 -7 -48 24 0 37 18 39 49 6z m-71 -11 c-6 -14 -13
-23 -15 -21 -5 5 15 46 22 46 3 0 -1 -11 -7 -25z m2005 -94 c-8 -37 -28 -56
-60 -59 l-27 -2 32 33 c18 18 32 38 32 43 0 6 7 11 15 11 11 0 13 -7 8 -26z
m-47 -7 c-4 -9 -9 -15 -11 -12 -3 3 -3 13 1 22 4 9 9 15 11 12 3 -3 3 -13 -1
-22z m-1694 -9 c42 0 71 -3 65 -7 -8 -5 -5 -8 6 -8 10 0 16 -4 13 -9 -4 -5 16
-15 44 -22 37 -9 50 -18 50 -31 0 -18 24 -24 54 -12 11 4 14 13 10 30 -4 15
-2 24 6 24 6 0 8 5 5 10 -6 10 14 8 69 -7 15 -4 16 -7 5 -14 -8 -5 -9 -9 -4
-10 6 0 -1 -4 -15 -8 -16 -4 -27 -16 -30 -31 -3 -14 -9 -32 -15 -40 -11 -17
-70 -50 -89 -50 -6 0 -18 -9 -26 -20 -14 -20 -54 -27 -64 -12 -10 17 -15 62
-5 57 5 -4 9 1 9 9 0 9 -8 16 -17 16 -14 0 -15 2 -4 9 10 6 10 10 1 16 -6 4
-14 4 -17 1 -3 -3 -12 2 -19 12 -8 10 -13 12 -14 5 0 -23 -30 -1 -30 23 0 15
-6 24 -15 24 -9 0 -18 6 -21 14 -7 19 -39 13 -38 -8 1 -12 -3 -15 -16 -11 -9
3 -23 -1 -29 -9 -7 -8 -19 -12 -28 -9 -13 5 -13 7 0 14 9 6 13 20 11 39 -4 31
-4 31 34 23 20 -4 71 -8 114 -8z m2298 -31 c0 -8 -4 -12 -10 -9 -5 3 -10 10
-10 16 0 5 5 9 10 9 6 0 10 -7 10 -16z m-1330 -9 c-14 -8 -37 -14 -52 -15 -23
0 -28 -4 -28 -25 0 -34 -28 -75 -51 -75 -10 0 -24 -9 -33 -21 -8 -11 -22 -19
-32 -17 -44 8 -43 75 1 104 28 18 168 62 200 63 18 0 17 -1 -5 -14z m822 -17
c-7 -7 -12 -8 -12 -2 0 6 3 14 7 17 3 4 9 5 12 2 2 -3 -1 -11 -7 -17z m816 10
c-5 -13 -58 -31 -58 -19 0 13 24 31 43 31 10 0 17 -5 15 -12z m-292 -23 c-3
-9 -11 -13 -16 -10 -8 5 -7 11 1 21 14 18 24 11 15 -11z m-476 5 c0 -5 -4 -10
-10 -10 -5 0 -10 5 -10 10 0 6 5 10 10 10 6 0 10 -4 10 -10z m700 -17 c0 -5
-5 -15 -10 -23 -9 -13 -11 -13 -20 0 -7 11 -10 11 -10 2 0 -7 9 -22 19 -33 24
-26 37 -66 15 -48 -8 6 -14 17 -14 24 0 7 -7 15 -15 19 -18 7 -20 37 -3 54 13
13 38 16 38 5z m-585 -13 c-3 -6 1 -7 9 -4 18 7 19 4 10 -21 -4 -10 -9 -13
-13 -6 -5 7 -14 6 -30 -2 -13 -7 -22 -15 -20 -18 2 -3 -2 -13 -10 -22 -12 -15
-11 -17 3 -17 9 0 20 -10 25 -22 7 -18 3 -28 -16 -47 l-24 -24 -15 21 c-12 18
-19 20 -35 11 -14 -7 -24 -7 -33 0 -7 6 -15 9 -17 6 -3 -2 -5 5 -6 15 -2 24
13 26 25 3 8 -13 16 -15 43 -7 43 12 50 34 10 34 -33 0 -101 28 -101 42 0 5
-5 6 -12 2 -7 -4 -8 -3 -4 4 3 6 -3 16 -14 22 -11 6 -20 16 -19 23 0 9 2 9 6
0 2 -7 9 -13 14 -13 6 0 7 5 4 10 -3 6 -1 10 4 10 6 0 11 -6 11 -14 0 -21 40
-27 74 -10 24 12 27 12 14 1 -10 -8 -15 -17 -11 -20 15 -16 54 -5 80 23 26 27
62 42 48 20z m-985 -16 c0 -8 -5 -12 -10 -9 -6 4 -8 11 -5 16 9 14 15 11 15
-7z m1460 12 c0 -2 -7 -6 -15 -10 -8 -3 -15 -1 -15 4 0 6 7 10 15 10 8 0 15
-2 15 -4z m502 -26 c-6 -16 -11 -20 -16 -11 -4 6 -2 19 5 27 16 20 21 12 11
-16z m-525 -27 c3 -7 -4 -9 -16 -6 -12 3 -18 9 -15 15 7 11 26 6 31 -9z m-184
-12 c4 -1 7 -5 7 -11 0 -5 -6 -7 -14 -4 -8 3 -24 -4 -35 -15 -12 -12 -29 -20
-38 -20 -17 1 -17 2 0 6 9 2 17 12 17 22 0 24 6 28 32 25 13 -1 26 -3 31 -3z
m257 -31 c0 -5 -2 -10 -4 -10 -3 0 -8 5 -11 10 -3 6 -1 10 4 10 6 0 11 -4 11
-10z m-3246 -25 c2 -6 -2 -12 -10 -12 -7 0 -15 6 -18 12 -2 6 2 12 10 12 7 0
15 -6 18 -12z m-119 -7 c5 4 5 2 1 -5 -8 -15 -43 -13 -43 3 0 9 6 10 17 4 10
-5 21 -6 25 -2z m2925 -13 c-14 -17 -30 -20 -30 -6 0 5 8 12 18 14 9 3 19 5
21 6 2 0 -2 -6 -9 -14z m63 -10 c-5 -13 -23 -22 -23 -11 0 15 14 35 21 31 4
-3 6 -12 2 -20z m-116 -8 c11 4 14 1 11 -13 -2 -10 -9 -19 -16 -18 -6 1 -23 2
-36 3 l-24 1 21 25 c16 17 23 20 25 10 2 -8 10 -11 19 -8z m-177 -12 c51 -9
67 -31 28 -39 -7 -2 -22 -7 -32 -11 -15 -6 -25 -2 -43 21 -27 35 -29 47 -5 40
9 -3 33 -8 52 -11z m1110 -5 c6 -11 15 -18 19 -15 5 2 14 -2 20 -9 9 -11 6
-25 -16 -65 -15 -27 -36 -52 -46 -55 -10 -2 -15 -10 -12 -18 9 -23 -21 -44
-40 -28 -27 23 -18 -34 10 -60 14 -13 25 -31 25 -40 0 -9 4 -20 10 -26 7 -7
-2 -9 -25 -6 -40 5 -41 7 -19 29 14 15 14 18 -10 32 -14 9 -26 21 -26 28 0 7
-7 13 -15 13 -8 0 -15 5 -15 11 0 6 7 9 15 5 24 -9 20 56 -5 77 -20 17 -28 43
-10 32 6 -3 10 0 10 7 0 12 7 20 45 46 6 4 18 19 28 35 21 32 42 35 57 7z
m-4280 -4 c0 -2 -7 -7 -16 -10 -8 -3 -12 -2 -9 4 6 10 25 14 25 6z m4180 -22
c0 -18 -26 -18 -33 0 -3 8 -3 16 0 19 9 10 33 -5 33 -19z m-4110 1 c0 -10 -9
-14 -25 -13 -31 3 -33 15 -2 21 12 2 23 5 25 6 1 0 2 -6 2 -14z m3200 6 c0 -5
-10 -11 -22 -14 -22 -6 -22 -6 -4 8 23 17 26 18 26 6z m344 -6 c3 -8 1 -15 -4
-15 -6 0 -10 7 -10 15 0 8 2 15 4 15 2 0 6 -7 10 -15z m-319 -24 c3 -5 -4 -12
-15 -16 -22 -7 -27 -44 -9 -62 14 -14 3 -34 -15 -27 -17 6 -31 -27 -15 -36 8
-6 8 -9 0 -15 -7 -4 -18 -2 -25 4 -10 9 -15 7 -20 -6 -4 -10 -1 -20 9 -25 8
-5 15 -18 15 -28 0 -22 10 -26 27 -9 6 6 22 7 37 3 24 -6 27 -11 23 -38 -2
-17 0 -42 5 -55 5 -15 5 -28 -2 -36 -16 -20 4 -27 35 -13 32 14 56 -2 36 -26
-10 -12 -7 -15 19 -21 18 -4 41 -18 53 -31 26 -30 38 -30 87 2 42 28 48 42 28
62 -9 9 -8 12 4 12 9 0 18 -6 21 -12 3 -10 9 -8 24 5 11 9 25 17 31 17 7 0 12
8 13 18 0 14 2 13 9 -4 4 -11 29 -31 54 -45 57 -30 59 -43 6 -34 -48 8 -54 -7
-10 -27 17 -7 30 -18 30 -25 0 -6 8 -18 18 -25 11 -7 24 -23 30 -35 7 -12 24
-23 39 -25 19 -2 27 -8 25 -19 -3 -19 33 -54 56 -54 10 0 16 -6 14 -15 -11
-45 -11 -59 -2 -65 5 -3 10 -13 10 -21 0 -11 -4 -12 -18 -5 -9 5 -29 7 -44 4
-32 -6 -70 -44 -50 -50 14 -5 17 -24 2 -20 -5 1 -21 -11 -34 -28 -22 -27 -27
-29 -46 -17 -12 7 -24 11 -27 8 -12 -12 8 -36 45 -55 22 -11 42 -28 46 -37 10
-26 -3 -30 -20 -6 -15 21 -42 32 -29 12 3 -5 1 -10 -5 -10 -6 0 -13 7 -17 16
-6 15 -8 15 -21 -2 -13 -18 -14 -18 -8 3 5 17 1 23 -21 31 -21 8 -23 11 -9 11
20 1 20 1 0 17 -10 8 -13 13 -6 9 6 -3 12 -1 12 4 0 10 -17 15 -47 14 -7 -1
-13 8 -13 19 0 17 -3 18 -15 8 -12 -10 -15 -9 -15 5 0 11 -5 15 -15 12 -8 -4
-17 -1 -21 5 -5 7 -2 8 6 3 8 -5 11 -4 7 3 -4 5 -16 8 -28 5 -12 -3 -24 -2
-28 3 -14 20 -48 32 -63 23 -12 -7 -24 -2 -44 16 -15 14 -23 25 -18 25 5 1 -6
7 -23 15 -18 8 -33 19 -33 26 0 8 -4 8 -15 -1 -12 -10 -15 -9 -15 7 0 16 -5
19 -26 15 -19 -3 -25 -1 -20 7 4 6 3 11 -3 11 -5 0 -11 -3 -14 -7 -2 -5 -2 -2
-1 5 2 7 -3 15 -11 18 -8 4 -12 11 -8 18 4 6 -2 4 -12 -4 -14 -11 -17 -11 -11
-1 7 10 3 12 -15 6 -32 -10 -40 -18 -42 -44 -1 -11 -5 -21 -9 -21 -14 0 -9 33
8 51 15 16 14 19 -5 36 -14 11 -21 29 -21 51 0 31 -3 34 -24 30 -13 -3 -32 1
-42 9 -12 8 -13 13 -4 13 10 0 9 4 -3 18 -10 10 -17 24 -17 31 0 7 -4 9 -10 6
-6 -4 -7 1 -3 12 6 16 9 15 17 -8 6 -19 16 -26 31 -25 14 0 21 6 18 14 -3 6
-1 12 4 12 18 0 22 -13 12 -33 -7 -12 -7 -17 -1 -13 6 3 12 0 15 -6 3 -10 7
-10 17 -1 10 9 8 18 -10 43 -27 39 -36 116 -13 124 11 5 13 14 8 37 -6 28 -3
36 29 65 19 18 45 39 57 48 15 10 23 28 25 58 2 24 8 44 14 46 5 2 10 10 10
17 0 20 34 32 45 16z m415 -1 c0 -5 -4 -10 -10 -10 -5 0 -10 5 -10 10 0 6 5
10 10 10 6 0 10 -4 10 -10z m-10 -57 c0 -23 -18 -14 -28 15 -8 21 -11 23 -12
7 -1 -18 -1 -19 -11 -2 -5 9 -7 22 -3 28 7 13 54 -28 54 -48z m-743 25 c-3 -8
-6 -5 -6 6 -1 11 2 17 5 13 3 -3 4 -12 1 -19z m373 12 c0 -5 -2 -10 -4 -10 -3
0 -8 5 -11 10 -3 6 -1 10 4 10 6 0 11 -4 11 -10z m590 -23 c0 -18 -2 -19 -11
-7 -9 12 -11 13 -16 1 -3 -7 -18 -28 -34 -45 -22 -24 -28 -27 -29 -14 0 22 69
100 81 92 5 -3 9 -15 9 -27z m-4100 14 c0 -6 -4 -12 -8 -15 -5 -3 -9 1 -9 9 0
8 4 15 9 15 4 0 8 -4 8 -9z m4170 -11 c0 -5 -4 -10 -10 -10 -5 0 -10 5 -10 10
0 6 5 10 10 10 6 0 10 -4 10 -10z m-3070 -20 c-8 -5 -17 -7 -19 -4 -3 3 1 9 9
14 8 5 17 7 19 4 3 -3 -1 -9 -9 -14z m3130 -32 c0 -4 5 -7 11 -5 6 1 14 -4 16
-11 4 -10 -2 -10 -26 2 -35 18 -38 23 -16 23 8 0 15 -4 15 -9z m-206 -44 c22
-22 20 -25 -9 -12 -14 6 -25 15 -25 20 0 13 17 9 34 -8z m-224 -55 c0 -5 -7
-9 -15 -9 -8 0 -15 7 -15 15 0 9 6 12 15 9 8 -4 15 -10 15 -15z m180 6 c0 -8
-2 -15 -4 -15 -2 0 -11 -3 -20 -6 -10 -4 -16 -1 -16 9 0 14 13 24 33 26 4 1 7
-6 7 -14z m-290 -15 c0 -5 -2 -10 -4 -10 -3 0 -8 5 -11 10 -3 6 -1 10 4 10 6
0 11 -4 11 -10z m183 -48 c-41 -28 -60 -19 -20 10 15 11 27 27 27 36 0 13 2
13 14 -3 13 -18 11 -22 -21 -43z m240 13 c-3 -9 -8 -14 -10 -11 -3 3 -2 9 2
15 9 16 15 13 8 -4z m-1753 -15 c0 -5 -2 -10 -4 -10 -3 0 -8 5 -11 10 -3 6 -1
10 4 10 6 0 11 -4 11 -10z m1661 -31 c6 -13 7 -19 1 -15 -6 3 -16 1 -24 -6
-38 -36 -48 -41 -63 -28 -20 17 -19 26 7 50 28 26 64 26 79 -1z m349 -11 c0
-16 -20 -7 -30 12 -10 19 -10 20 9 8 12 -7 21 -16 21 -20z m-690 2 c13 -8 13
-10 -2 -10 -9 0 -20 5 -23 10 -8 13 5 13 25 0z m-3620 -30 c0 -5 -2 -10 -4
-10 -3 0 -8 5 -11 10 -3 6 -1 10 4 10 6 0 11 -4 11 -10z m1017 4 c-3 -3 -12
-4 -19 -1 -8 3 -5 6 6 6 11 1 17 -2 13 -5z m3343 -19 c0 -7 7 -18 15 -25 19
-15 14 -23 -9 -14 -9 3 -16 12 -16 19 0 7 -7 15 -15 19 -22 8 -18 25 5 19 11
-3 20 -11 20 -18z m-785 3 c-3 -7 -18 -19 -33 -25 l-27 -13 28 25 c32 28 39
31 32 13z m275 -28 c0 -14 -14 -12 -28 2 -19 19 -14 30 8 18 11 -6 20 -15 20
-20z m593 -10 c3 -11 1 -18 -4 -14 -5 3 -9 12 -9 20 0 20 7 17 13 -6z m-3403
-9 c-5 -11 -15 -23 -21 -27 -6 -3 -3 5 6 20 20 30 30 35 15 7z m2135 10 c3 -5
2 -12 -3 -15 -5 -3 -9 1 -9 9 0 17 3 19 12 6z m743 -9 c3 -9 -2 -13 -14 -10
-9 1 -19 9 -22 16 -3 9 2 13 14 10 9 -1 19 -9 22 -16z m-2923 -62 c-10 -11
-21 -18 -23 -15 -3 3 3 12 14 20 27 20 30 18 9 -5z m3220 11 c-3 -5 4 -12 15
-16 21 -7 26 -20 11 -30 -11 -6 -42 35 -35 47 3 4 7 8 10 8 3 0 3 -4 -1 -9z
m-3055 -71 c0 -5 -5 -10 -11 -10 -5 0 -7 5 -4 10 3 6 8 10 11 10 2 0 4 -4 4
-10z m1080 -11 c0 -18 -2 -20 -15 -9 -13 11 -13 15 -3 21 18 12 18 12 18 -12z
m932 -1 c-7 -7 -12 -8 -12 -2 0 14 12 26 19 19 2 -3 -1 -11 -7 -17z m-27 -18
c-3 -5 -12 -10 -18 -10 -7 0 -6 4 3 10 19 12 23 12 15 0z m-2005 -20 c0 -5 -5
-10 -11 -10 -5 0 -7 5 -4 10 3 6 8 10 11 10 2 0 4 -4 4 -10z m1973 -91 c15
-19 59 -79 97 -134 39 -55 76 -102 83 -106 6 -4 67 -21 135 -38 79 -20 162
-49 235 -84 62 -29 135 -59 162 -66 55 -13 235 -101 235 -113 0 -5 -12 -1 -27
9 -23 14 -26 15 -16 2 7 -9 10 -19 6 -22 -3 -4 -2 -7 4 -7 6 0 11 -20 11 -45
1 -50 2 -50 -57 -6 -31 23 -45 26 -125 28 l-91 1 85 -7 c47 -4 95 -14 108 -22
26 -16 31 -55 6 -45 -12 5 -15 2 -10 -9 3 -9 2 -14 -3 -10 -20 12 -39 -7 -39
-39 0 -18 -10 -54 -21 -79 -20 -45 -23 -47 -54 -42 -18 4 -33 10 -35 16 -7 18
-20 9 -15 -10 4 -15 -4 -24 -35 -40 -22 -11 -43 -17 -47 -13 -5 4 -5 2 -1 -5
4 -7 4 -23 1 -36 -5 -18 -13 -24 -36 -25 -16 0 -29 4 -29 9 0 6 4 8 9 4 5 -3
12 -1 15 4 6 9 -22 8 -84 -4 -19 -4 -39 -8 -45 -8 -5 -1 -9 6 -7 16 2 10 -3
17 -13 17 -8 0 -15 -4 -15 -10 0 -5 -5 -10 -11 -10 -5 0 -7 5 -4 10 3 6 -2 13
-12 17 -10 4 -35 17 -55 31 -20 13 -42 21 -47 17 -6 -3 -11 -1 -11 4 0 6 -7
11 -15 11 -8 0 -15 7 -15 15 0 9 -6 12 -17 8 -13 -5 -15 -2 -11 15 3 12 0 38
-8 59 -7 21 -13 31 -14 22 0 -9 -8 -20 -17 -23 -14 -6 -15 -9 -4 -15 10 -6 9
-10 -5 -15 -10 -4 -15 -4 -11 0 4 4 0 18 -8 31 -13 20 -13 23 -1 23 8 0 18 5
22 12 5 8 2 9 -9 5 -10 -4 -17 -1 -17 6 0 8 -4 6 -10 -3 -8 -13 -10 -13 -10 2
0 10 10 26 22 37 l21 20 -24 20 -24 19 28 -1 c15 -1 27 -6 27 -10 0 -5 4 -6 9
-3 4 3 6 17 3 32 -3 17 -7 22 -13 13 -4 -7 -17 -14 -29 -16 -12 -2 -19 1 -16
6 4 5 -12 29 -34 52 -45 49 -49 59 -20 59 11 0 20 -6 20 -14 0 -10 10 -14 31
-14 17 1 35 -5 40 -13 5 -8 9 -9 9 -3 0 16 -22 34 -43 34 -13 0 -17 5 -13 16
3 8 2 12 -4 9 -6 -3 -10 -1 -10 4 0 6 -10 11 -22 11 -15 0 -27 9 -35 25 -10
23 -8 26 15 24 4 0 6 -8 4 -17 -2 -15 -1 -15 12 2 16 20 41 12 32 -10 -3 -8
-1 -14 4 -14 22 0 9 41 -16 50 -14 6 -23 14 -20 18 2 4 -4 8 -14 8 -10 0 -17
-3 -14 -7 2 -4 -3 -10 -12 -13 -11 -4 -15 -2 -11 8 3 8 1 17 -6 20 -10 4 9 7
30 5 11 -1 21 35 13 46 -4 6 -10 22 -14 36 -4 17 -12 26 -23 25 -12 -1 -17 5
-15 16 2 12 -2 16 -13 12 -10 -4 -15 0 -15 14 0 19 -32 39 -54 34 -10 -3 -42
39 -38 51 1 4 -3 7 -9 7 -5 0 -3 10 5 22 18 25 22 63 6 53 -5 -3 -10 -1 -10 4
0 13 13 14 25 2 15 -14 35 13 24 30 -8 12 -10 12 -19 -1 -8 -12 -10 -11 -10 8
0 13 4 20 10 17 6 -3 10 -1 10 5 0 6 5 8 12 4 7 -5 9 -2 5 9 -3 9 -1 17 6 20
11 3 29 -13 80 -74z m67 70 c0 -11 -27 -12 -34 -1 -2 4 4 9 15 9 10 1 19 -2
19 -8z m-991 -33 c-3 -3 -11 5 -18 17 -13 21 -12 21 5 5 10 -10 16 -20 13 -22z
m161 13 c16 -30 8 -31 -13 -3 -10 13 -13 24 -8 24 6 0 15 -9 21 -21z m-110
-73 c0 -26 -6 -18 -14 19 -5 22 -4 26 4 15 5 -8 10 -24 10 -34z m947 12 c-3
-8 -6 -5 -6 6 -1 11 2 17 5 13 3 -3 4 -12 1 -19z m-837 -42 c0 -26 -6 -18 -14
19 -5 22 -4 26 4 15 5 -8 10 -24 10 -34z m-1233 8 c-3 -3 -12 -4 -19 -1 -8 3
-5 6 6 6 11 1 17 -2 13 -5z m2977 -107 c15 -23 2 -31 -26 -16 -26 14 -39 30
-32 41 7 11 46 -6 58 -25z m48 16 c-1 -4 7 -17 16 -28 16 -19 16 -19 -3 -5
-27 20 -35 32 -28 43 6 9 15 3 15 -10z m-3017 -3 c-4 -6 -15 -8 -26 -5 -10 4
-19 2 -19 -3 0 -6 -7 -12 -15 -16 -13 -4 -14 -2 -5 14 7 13 21 20 41 20 18 0
28 -4 24 -10z m557 -22 c-7 -7 -12 -8 -12 -2 0 6 3 14 7 17 3 4 9 5 12 2 2 -3
-1 -11 -7 -17z m-82 6 c0 -8 -19 -13 -24 -6 -3 5 1 9 9 9 8 0 15 -2 15 -3z
m-493 -18 c-3 -8 -1 -17 6 -20 8 -3 8 -5 1 -5 -6 -1 -18 7 -25 16 -10 11 -10
14 -1 9 6 -4 12 -2 12 3 0 6 3 11 6 11 3 0 4 -6 1 -14z m1943 -2 c0 -2 -7 -4
-15 -4 -8 0 -15 4 -15 10 0 5 7 7 15 4 8 -4 15 -8 15 -10z m1107 -78 c-8 -21
-20 -20 -34 4 -11 16 -10 18 2 14 11 -5 15 2 16 27 l1 34 10 -32 c6 -18 8 -39
5 -47z m-1137 54 c0 -5 -7 -7 -15 -4 -8 4 -15 8 -15 10 0 2 7 4 15 4 8 0 15
-4 15 -10z m-1949 -14 c-10 -12 0 -14 63 -12 41 1 83 -2 93 -6 10 -3 -26 -7
-81 -7 -87 -1 -97 -3 -86 -16 11 -13 10 -14 -4 -9 -9 3 -16 1 -16 -5 0 -6 6
-11 13 -11 8 0 7 -4 -3 -10 -22 -14 -25 -13 -25 15 0 14 4 25 9 25 5 0 7 3 4
6 -4 3 1 14 10 24 20 21 40 27 23 6z m2009 -16 c0 -5 -7 -10 -16 -10 -8 0 -12
5 -9 10 3 6 10 10 16 10 5 0 9 -4 9 -10z m945 -16 c35 -23 32 -44 -4 -41 -22
1 -31 8 -34 24 -7 36 3 40 38 17z m-3036 2 c-2 -2 -15 -9 -29 -15 -24 -11 -24
-11 -6 3 16 13 49 24 35 12z m2121 -26 c0 -5 -2 -10 -4 -10 -3 0 -8 5 -11 10
-3 6 -1 10 4 10 6 0 11 -4 11 -10z m-1786 -22 c-3 -4 -9 -8 -15 -8 -5 0 -9 4
-9 8 0 5 7 9 15 9 8 0 12 -4 9 -9z m1776 -13 c0 -5 5 -3 10 5 6 9 10 10 10 3
0 -11 -30 -33 -44 -33 -3 0 -10 8 -15 18 -7 14 -5 17 15 17 13 0 24 -4 24 -10z
m-1181 -14 c8 -5 11 -16 7 -26 -6 -17 -8 -17 -26 0 -11 10 -20 22 -20 27 0 11
21 10 39 -1z m276 -15 c-10 -6 -25 -19 -34 -28 -21 -24 -41 -23 -41 2 0 11 7
20 15 20 8 0 15 5 15 11 0 5 4 8 9 4 5 -3 12 -1 16 4 3 6 13 7 22 4 15 -6 15
-8 -2 -17z m2263 8 c-22 -12 -48 -9 -48 6 0 4 16 8 35 7 34 -1 34 -2 13 -13z
m-453 -4 c3 -5 1 -10 -4 -10 -6 0 -11 5 -11 10 0 6 2 10 4 10 3 0 8 -4 11 -10z
m-2682 -12 c-13 -6 -23 -19 -23 -30 0 -18 -11 -24 -23 -11 -10 9 34 53 52 52
11 0 9 -4 -6 -11z m1387 -38 c5 0 7 -7 3 -16 -5 -14 -8 -12 -19 7 -7 13 -9 28
-6 34 4 5 8 2 10 -7 2 -10 7 -18 12 -18z m1330 0 c0 -5 -2 -10 -4 -10 -3 0 -8
5 -11 10 -3 6 -1 10 4 10 6 0 11 -4 11 -10z m530 1 c0 -6 -5 -13 -10 -16 -6
-4 -8 -11 -5 -16 4 -5 2 -9 -4 -9 -13 0 -32 35 -24 44 10 10 43 7 43 -3z
m-3199 -15 c15 9 10 -61 -6 -82 -13 -17 -14 -17 -15 -1 0 9 5 17 11 17 7 0 9
9 5 24 -3 13 -7 30 -9 38 -2 7 -2 10 0 5 3 -4 9 -5 14 -1z m2836 8 c-3 -3 -12
-4 -19 -1 -8 3 -5 6 6 6 11 1 17 -2 13 -5z m-2231 -25 c5 -4 20 -6 32 -2 13 3
22 1 22 -6 0 -16 36 -14 54 4 15 16 86 21 86 7 0 -26 -134 -51 -202 -38 -43 8
-73 29 -64 45 7 11 52 5 72 -10z m-629 -21 c-3 -8 -6 -5 -6 6 -1 11 2 17 5 13
3 -3 4 -12 1 -19z m1759 6 c-5 -14 -4 -15 9 -4 12 10 15 10 15 -3 0 -21 -19
-32 -32 -19 -11 11 -5 42 8 42 3 0 3 -7 0 -16z m-31 -34 c-3 -5 -12 -10 -18
-10 -7 0 -6 4 3 10 19 12 23 12 15 0z m1418 -41 c5 -3 -4 -4 -20 -2 -44 7 -55
12 -48 23 5 9 48 -4 68 -21z m-3350 2 c3 -14 0 -18 -17 -15 -11 2 -15 2 -8 -2
6 -3 12 -12 12 -20 0 -8 8 -14 18 -15 14 0 14 -2 -3 -8 -20 -8 -39 5 -29 20 2
4 -3 9 -11 11 -14 3 -14 5 0 26 20 27 31 28 38 3z m3262 -13 c5 -4 0 -8 -12
-8 -12 0 -34 -11 -49 -25 -27 -25 -54 -25 -33 1 6 8 9 17 5 21 -3 3 1 14 10
24 13 15 20 16 42 6 15 -6 31 -14 37 -19z m-3031 -4 c9 -24 7 -67 -4 -84 -8
-11 -10 -5 -9 25 1 22 -2 48 -6 58 -4 9 -3 17 3 17 5 0 13 -7 16 -16z m193 10
c-3 -3 -12 -4 -19 -1 -8 3 -5 6 6 6 11 1 17 -2 13 -5z m1600 -30 c-3 -3 -12
-4 -19 -1 -8 3 -5 6 6 6 11 1 17 -2 13 -5z m1093 -14 c0 -5 -7 -10 -16 -10 -8
0 -12 5 -9 10 3 6 10 10 16 10 5 0 9 -4 9 -10z m-1085 -10 c-3 -5 -10 -10 -16
-10 -5 0 -9 5 -9 10 0 6 7 10 16 10 8 0 12 -4 9 -10z m1405 -21 c0 -6 -4 -7
-10 -4 -5 3 -10 11 -10 16 0 6 5 7 10 4 6 -3 10 -11 10 -16z m-2015 -17 c-3
-3 -11 0 -18 7 -9 10 -8 11 6 5 10 -3 15 -9 12 -12z m633 -93 c-3 -8 -7 -3
-11 10 -4 17 -3 21 5 13 5 -5 8 -16 6 -23z m827 20 c11 -17 -1 -21 -15 -4 -8
9 -8 15 -2 15 6 0 14 -5 17 -11z m518 -74 c-28 -35 -43 -44 -43 -25 0 14 46
60 60 60 6 0 -2 -16 -17 -35z m-3303 15 c0 -5 -4 -10 -10 -10 -5 0 -10 5 -10
10 0 6 5 10 10 10 6 0 10 -4 10 -10z m-137 -50 c3 -11 1 -18 -3 -15 -5 3 -8
-13 -7 -35 1 -39 -12 -60 -38 -60 -5 0 -3 5 5 10 13 9 13 10 0 10 -12 1 -11 3
3 11 9 5 17 20 17 32 0 22 10 67 15 67 1 0 5 -9 8 -20z m100 -33 c3 -9 1 -15
-3 -12 -5 3 -10 0 -13 -7 -2 -7 -2 -3 0 10 5 32 -6 27 -22 -10 -8 -18 -14 -26
-14 -18 -1 8 3 21 8 29 6 9 6 24 0 38 -9 24 -9 24 15 6 14 -10 27 -26 29 -36z
m104 16 c-3 -10 -5 -4 -5 12 0 17 2 24 5 18 2 -7 2 -21 0 -30z m1563 -8 c13
-14 21 -25 18 -25 -2 0 -15 11 -28 25 -13 14 -21 25 -18 25 2 0 15 -11 28 -25z
m-1740 -10 c-7 -8 -18 -15 -24 -15 -6 0 -2 7 8 15 25 19 32 19 16 0z m3380
-51 c0 -2 -7 -4 -15 -4 -8 0 -15 4 -15 10 0 5 7 7 15 4 8 -4 15 -8 15 -10z
m-3453 -56 c-3 -8 -6 -5 -6 6 -1 11 2 17 5 13 3 -3 4 -12 1 -19z m80 -40 c-3
-7 -5 -2 -5 12 0 14 2 19 5 13 2 -7 2 -19 0 -25z m-57 2 c0 -5 -5 -10 -11 -10
-5 0 -7 5 -4 10 3 6 8 10 11 10 2 0 4 -4 4 -10z m2383 -17 c-24 -16 -20 -43 6
-43 9 0 22 -9 29 -20 7 -11 21 -20 31 -20 12 0 25 -12 33 -30 7 -17 20 -30 31
-30 11 0 15 -5 11 -11 -3 -6 -2 -14 4 -18 13 -8 -10 -103 -26 -109 -14 -4 -42
27 -128 146 -60 82 -71 104 -58 109 11 4 12 8 4 13 -17 11 39 38 64 31 19 -4
19 -5 -1 -18z m-176 -23 c10 -11 29 -20 43 -20 14 0 32 -6 41 -13 20 -15 169
-217 169 -229 0 -11 -19 -10 -181 3 -73 6 -141 11 -149 11 -45 -3 -160 11
-160 19 0 6 11 21 25 35 14 14 25 29 25 33 0 4 9 16 19 25 15 13 20 14 24 4 3
-7 6 -2 7 12 1 30 35 74 50 65 6 -4 10 -12 9 -18 -3 -23 1 -40 8 -34 4 4 7 24
7 44 1 28 7 40 23 48 17 9 20 14 11 23 -9 9 -9 12 0 12 7 0 20 -9 29 -20z
m-1507 6 c0 -2 -7 -7 -16 -10 -8 -3 -12 -2 -9 4 6 10 25 14 25 6z m155 -26
c-3 -5 -11 -10 -16 -10 -6 0 -7 5 -4 10 3 6 11 10 16 10 6 0 7 -4 4 -10z m-35
-10 c0 -5 -5 -10 -11 -10 -5 0 -7 5 -4 10 3 6 8 10 11 10 2 0 4 -4 4 -10z
m804 -49 c-3 -3 -15 6 -27 18 l-22 24 27 -19 c14 -10 24 -21 22 -23z m-1419
-140 c3 -5 1 -12 -5 -16 -5 -3 -10 1 -10 9 0 18 6 21 15 7z m1745 5 c0 -3 -4
-8 -10 -11 -5 -3 -10 -1 -10 4 0 6 5 11 10 11 6 0 10 -2 10 -4z m-1920 -32 c0
-14 -4 -23 -10 -19 -5 3 -10 1 -10 -6 0 -7 -2 -10 -5 -7 -6 5 15 58 22 58 1 0
3 -12 3 -26z m2097 -27 c3 -4 -19 -7 -50 -7 -31 0 -57 4 -57 8 0 10 97 8 107
-1z m-1970 -19 c-3 -8 -6 -5 -6 6 -1 11 2 17 5 13 3 -3 4 -12 1 -19z m1800
-26 c26 -28 203 -287 203 -297 0 -4 -108 -5 -240 -2 -265 4 -287 9 -235 52 17
13 37 25 45 25 13 0 13 2 1 9 -13 8 -13 12 0 28 65 82 98 112 119 108 11 -2
23 1 26 7 4 6 3 8 -3 5 -6 -4 -16 -1 -21 6 -8 10 -6 17 8 27 11 8 20 20 20 27
0 12 13 18 34 14 5 -1 6 5 3 13 -3 8 -3 17 1 21 4 3 8 1 10 -5 2 -6 15 -23 29
-38z m468 32 c16 -3 31 -7 33 -9 6 -6 -8 -25 -19 -25 -6 0 -8 4 -5 9 3 5 -46
12 -112 16 -129 8 -152 11 -161 21 -6 7 214 -3 264 -12z m-2428 -26 c-3 -8 -6
-5 -6 6 -1 11 2 17 5 13 3 -3 4 -12 1 -19z m2030 -42 c9 -17 19 -33 23 -36 4
-3 35 -48 70 -100 34 -52 66 -98 69 -103 4 -4 36 29 72 73 35 44 65 76 67 70
4 -10 -125 -170 -136 -170 -6 0 -184 267 -208 310 -7 13 -6 13 10 1 9 -8 24
-28 33 -45z m-2063 -48 c-4 -6 -10 -5 -15 3 -14 22 -10 33 6 19 8 -7 12 -17 9
-22z m-4 -32 c0 -3 -4 -8 -10 -11 -5 -3 -10 -1 -10 4 0 6 5 11 10 11 6 0 10
-2 10 -4z m1564 -197 c-6 -11 -24 -2 -24 11 0 5 7 7 15 4 8 -4 12 -10 9 -15z
m41 1 c3 -5 -1 -10 -9 -10 -9 0 -16 5 -16 10 0 6 4 10 9 10 6 0 13 -4 16 -10z
m-1298 -22 c-3 -8 -6 -5 -6 6 -1 11 2 17 5 13 3 -3 4 -12 1 -19z m1890 9 c3
-4 -16 -32 -42 -64 -26 -32 -88 -109 -137 -170 -49 -62 -94 -113 -99 -113 -9
0 -144 197 -201 294 -50 84 -23 61 37 -31 104 -160 160 -242 165 -242 13 1
249 309 238 310 -7 1 -24 3 -38 4 -14 2 -105 4 -202 5 -98 1 -180 5 -182 8 -5
9 452 7 461 -1z m-1057 -1 c0 -3 -4 -8 -10 -11 -5 -3 -10 -1 -10 4 0 6 5 11
10 11 6 0 10 -2 10 -4z m335 -17 c-3 -4 -12 -6 -20 -2 -21 7 -19 -1 5 -22 18
-17 20 -17 14 -2 -7 20 6 22 25 5 11 -11 11 -9 2 9 -9 18 -8 22 7 25 9 2 25
-5 35 -16 16 -18 17 -18 17 -1 0 15 2 17 13 6 10 -10 7 -16 -12 -32 -13 -10
-21 -19 -18 -19 3 0 -5 -12 -18 -27 -13 -16 -54 -66 -91 -113 -37 -47 -73 -88
-78 -92 -18 -12 -29 -9 -22 7 3 8 2 15 -3 15 -5 0 -7 13 -5 29 2 17 -3 34 -12
42 -18 15 -2 29 32 29 12 0 25 7 28 17 6 14 8 14 21 -3 15 -19 15 -18 8 1 -3
11 -11 26 -17 34 -9 12 -8 13 4 6 12 -6 13 -5 3 6 -18 18 -16 29 5 29 14 0 14
2 3 9 -12 8 -12 12 -2 25 7 9 18 13 24 9 5 -3 7 -1 4 5 -13 20 3 39 28 34 14
-2 22 -8 20 -13z m306 -167 c60 -91 107 -167 105 -170 -6 -5 -395 15 -463 25
-24 3 -43 9 -43 14 0 11 125 163 209 256 43 48 59 59 69 50 7 -6 63 -85 123
-175z m564 12 c113 -175 125 -198 103 -206 -7 -2 -85 1 -173 8 -88 7 -197 13
-242 13 -46 1 -83 5 -83 9 0 11 272 342 281 342 4 0 55 -75 114 -166z m-1245
126 c0 -5 -12 -10 -27 -9 l-28 1 25 8 c14 4 26 8 28 9 1 1 2 -3 2 -9z m10
-250 c-20 -38 -27 -20 -11 28 14 41 16 44 19 20 2 -15 -2 -36 -8 -48z m-1410
35 c0 -3 -9 -5 -20 -5 -11 0 -20 7 -20 15 0 13 4 14 20 5 11 -6 20 -13 20 -15z
m1550 -14 c0 -6 -4 -12 -8 -15 -5 -3 -9 1 -9 9 0 8 4 15 9 15 4 0 8 -4 8 -9z
m-1691 -35 c-7 -14 -17 -26 -22 -26 -5 0 -4 7 3 15 10 12 9 15 -4 15 -10 0
-14 5 -11 11 4 6 13 8 21 5 8 -3 14 0 14 6 0 6 2 9 5 6 3 -3 0 -17 -6 -32z
m1733 19 c9 4 18 0 21 -9 3 -8 0 -16 -6 -19 -15 -6 -57 10 -57 21 0 15 13 23
20 12 4 -6 14 -8 22 -5z m-1211 -22 c11 -15 11 -16 0 -6 -7 6 -20 9 -29 6 -10
-4 -13 -2 -8 5 10 17 21 15 37 -5z m2523 -19 c3 -8 2 -12 -4 -9 -6 3 -10 -3
-10 -14 0 -15 -6 -21 -22 -20 -19 1 -19 2 -5 6 10 3 16 11 14 18 -3 7 0 18 6
24 14 14 14 14 21 -5z m-1386 -25 c-2 -6 3 -14 10 -16 6 -3 12 0 12 6 0 6 7
11 16 11 14 0 14 -3 3 -16 -10 -12 -10 -17 -1 -23 9 -5 6 -15 -12 -35 -15 -18
-26 -24 -30 -17 -4 6 -16 11 -27 11 -25 0 -24 12 1 30 20 14 29 37 10 25 -11
-7 -14 18 -3 28 10 11 23 8 21 -4z m92 2 c0 -5 -7 -14 -15 -21 -12 -10 -15
-10 -15 2 0 8 3 18 7 21 9 10 23 9 23 -2z m-108 -106 c15 0 17 -13 4 -24 -11
-9 -22 -9 -48 3 -32 15 -32 15 -4 9 25 -5 28 -3 23 11 -5 12 -3 15 6 9 6 -4
15 -8 19 -8z m-965 -35 c-1 -14 -4 -16 -14 -8 -7 5 -20 8 -28 4 -24 -9 -17 8
8 20 28 13 36 9 34 -16z m916 -29 c-3 -11 -12 -22 -20 -26 -19 -7 -18 -7 -27
23 -7 19 -4 22 22 22 25 0 29 -3 25 -19z m-1175 -32 c-18 -12 -38 -11 -38 1 0
6 6 10 14 10 8 0 17 8 21 18 8 16 8 16 13 -2 2 -10 -2 -22 -10 -27z m-198 27
c0 -3 -4 -8 -10 -11 -5 -3 -10 -1 -10 4 0 6 5 11 10 11 6 0 10 -2 10 -4z"/>
<path d="M2968 4643 c7 -3 16 -2 19 1 4 3 -2 6 -13 5 -11 0 -14 -3 -6 -6z"/>
<path d="M2580 3500 c0 -5 5 -10 10 -10 6 0 10 5 10 10 0 6 -4 10 -10 10 -5 0
-10 -4 -10 -10z"/>
<path d="M4807 2853 c-10 -9 -9 -53 1 -53 14 0 32 23 32 42 0 18 -20 25 -33
11z"/>
<path d="M3733 2575 c-3 -9 -3 -18 -1 -21 3 -3 8 4 11 16 6 23 -1 27 -10 5z"/>
<path d="M3831 2555 c2 -5 -3 -21 -10 -35 l-13 -25 23 22 c19 19 21 25 10 35
-7 7 -11 9 -10 3z"/>
<path d="M4000 2457 c0 -18 60 -71 69 -62 3 4 -5 16 -19 27 -14 11 -25 25 -25
31 0 6 -6 12 -12 15 -7 2 -13 -3 -13 -11z"/>
<path d="M3638 1983 c6 -2 9 -10 6 -15 -4 -7 -2 -8 5 -4 13 9 5 26 -12 25 -9
0 -8 -2 1 -6z"/>
<path d="M3670 1899 c0 -5 5 -7 10 -4 6 3 10 8 10 11 0 2 -4 4 -10 4 -5 0 -10
-5 -10 -11z"/>
<path d="M3714 1783 c3 -4 17 -8 29 -10 17 -2 19 -1 7 7 -17 11 -47 14 -36 3z"/>
<path d="M4203 1673 c9 -2 23 -2 30 0 6 3 -1 5 -18 5 -16 0 -22 -2 -12 -5z"/>
<path d="M3740 1608 c0 -4 9 -8 20 -8 11 0 20 4 20 8 0 4 -9 8 -20 8 -11 0
-20 -4 -20 -8z"/>
<path d="M4016 1594 c-8 -21 -8 -21 8 -21 8 0 11 8 8 19 -5 22 -8 23 -16 2z"/>
<path d="M3807 1579 c7 -7 15 -10 18 -7 3 3 -2 9 -12 12 -14 6 -15 5 -6 -5z"/>
<path d="M3740 1570 c0 -13 18 -22 24 -11 3 5 -1 11 -9 15 -8 3 -15 1 -15 -4z"/>
<path d="M3845 1570 c-3 -5 1 -10 9 -10 8 0 18 5 21 10 3 6 -1 10 -9 10 -8 0
-18 -4 -21 -10z"/>
<path d="M3726 1217 c3 -10 9 -15 12 -12 3 3 0 11 -7 18 -10 9 -11 8 -5 -6z"/>
<path d="M3437 806 c-4 -10 0 -12 14 -9 10 3 16 9 13 14 -8 13 -21 11 -27 -5z"/>
<path d="M2350 5100 c20 -13 33 -13 25 0 -3 6 -14 10 -23 10 -15 0 -15 -2 -2
-10z"/>
<path d="M2320 5050 c0 -5 7 -10 15 -10 8 0 15 5 15 10 0 6 -7 10 -15 10 -8 0
-15 -4 -15 -10z"/>
<path d="M2318 5023 c7 -3 16 -2 19 1 4 3 -2 6 -13 5 -11 0 -14 -3 -6 -6z"/>
<path d="M2348 5013 c-10 -2 -18 -13 -18 -24 0 -23 13 -24 34 -4 18 18 43 19
49 3 4 -10 6 -10 6 0 1 10 -44 36 -52 31 -1 -1 -10 -3 -19 -6z"/>
<path d="M2060 4950 c-12 -8 -9 -10 13 -10 16 0 26 4 22 10 -8 12 -16 12 -35
0z"/>
<path d="M2058 4923 c7 -3 16 -2 19 1 4 3 -2 6 -13 5 -11 0 -14 -3 -6 -6z"/>
<path d="M2470 4910 c0 -5 4 -10 9 -10 6 0 13 5 16 10 3 6 -1 10 -9 10 -9 0
-16 -4 -16 -10z"/>
<path d="M2215 4900 c4 -6 11 -8 16 -5 14 9 11 15 -7 15 -8 0 -12 -5 -9 -10z"/>
<path d="M2218 4873 c7 -3 16 -2 19 1 4 3 -2 6 -13 5 -11 0 -14 -3 -6 -6z"/>
<path d="M2448 4863 c7 -3 16 -2 19 1 4 3 -2 6 -13 5 -11 0 -14 -3 -6 -6z"/>
<path d="M2578 4858 c5 -5 16 -8 23 -6 8 3 3 7 -10 11 -17 4 -21 3 -13 -5z"/>
<path d="M2542 4838 c5 -15 28 -18 29 -3 0 6 -7 12 -17 13 -10 3 -15 -1 -12
-10z"/>
<path d="M2228 4823 c7 -3 16 -2 19 1 4 3 -2 6 -13 5 -11 0 -14 -3 -6 -6z"/>
<path d="M2516 4805 c4 -8 11 -15 17 -15 6 0 8 -3 4 -6 -9 -9 21 -36 35 -32 6
2 12 17 14 32 3 25 0 27 -22 22 -14 -4 -24 -2 -24 4 0 5 -7 10 -15 10 -9 0
-12 -6 -9 -15z"/>
<path d="M2220 4766 c-6 -8 -24 -17 -38 -19 -15 -3 -1 -4 31 -2 31 1 61 6 65
10 4 4 -3 5 -16 2 -18 -4 -22 -2 -18 9 7 18 -8 18 -24 0z"/>
<path d="M2430 4735 c7 -9 15 -13 17 -11 7 7 -7 26 -19 26 -6 0 -6 -6 2 -15z"/>
<path d="M2110 4725 c0 -10 9 -15 28 -14 15 0 21 3 14 6 -6 2 -10 9 -6 14 3 5
-4 9 -15 9 -12 0 -21 -7 -21 -15z"/>
<path d="M2641 4670 c-12 -7 -13 -13 -3 -34 6 -14 17 -26 24 -26 9 0 9 3 0 12
-18 18 -14 31 8 25 17 -4 39 9 29 17 -12 11 -46 14 -58 6z"/>
<path d="M2055 4660 c-7 -11 22 -26 32 -16 4 3 1 6 -6 6 -7 0 -9 5 -6 10 3 6
2 10 -4 10 -5 0 -13 -5 -16 -10z"/>
<path d="M1980 4640 c0 -5 12 -10 28 -10 21 0 24 2 12 10 -20 13 -40 13 -40 0z"/>
<path d="M2080 4623 c-8 -2 -24 -8 -35 -13 -11 -5 -27 -11 -35 -13 -8 -3 0 -6
18 -6 17 -1 32 -6 32 -12 0 -5 5 -7 10 -4 6 4 8 11 4 16 -3 6 2 17 12 24 20
15 19 17 -6 8z"/>
<path d="M1980 4609 c0 -5 5 -7 10 -4 6 3 10 8 10 11 0 2 -4 4 -10 4 -5 0 -10
-5 -10 -11z"/>
<path d="M1957 4577 c-3 -9 5 -13 29 -13 33 0 34 0 12 13 -29 16 -35 16 -41 0z"/>
<path d="M2013 4533 c9 -2 25 -2 35 0 9 3 1 5 -18 5 -19 0 -27 -2 -17 -5z"/>
<path d="M2580 4511 c0 -5 9 -7 20 -4 11 3 20 7 20 9 0 2 -9 4 -20 4 -11 0
-20 -4 -20 -9z"/>
<path d="M1998 4503 c7 -3 16 -2 19 1 4 3 -2 6 -13 5 -11 0 -14 -3 -6 -6z"/>
<path d="M2048 4493 c7 -3 16 -2 19 1 4 3 -2 6 -13 5 -11 0 -14 -3 -6 -6z"/>
<path d="M2591 4409 c-35 -4 -69 -13 -75 -19 -13 -13 -5 -13 29 0 33 13 233
16 245 4 5 -5 -8 -10 -33 -11 -23 -1 -43 -6 -45 -12 -2 -6 -19 -11 -38 -11
-21 0 -33 -4 -29 -10 4 -6 -5 -10 -20 -10 -45 0 -118 -22 -104 -31 7 -4 19 -3
25 2 7 6 42 11 78 12 36 1 66 5 66 9 0 3 16 16 36 29 30 18 40 20 55 11 10 -7
28 -12 39 -12 11 0 20 -4 20 -10 0 -5 -10 -10 -22 -10 -19 0 -20 -2 -8 -10 8
-5 29 -10 47 -10 17 0 44 -5 58 -10 20 -8 32 -6 48 5 28 20 31 19 63 -10 21
-19 24 -28 15 -38 -8 -11 -5 -17 13 -27 13 -7 27 -21 29 -31 4 -15 2 -17 -13
-9 -25 13 -50 13 -27 -1 9 -5 17 -15 17 -20 0 -6 -8 -3 -17 7 -31 31 -86 48
-161 49 -40 0 -76 5 -80 10 -8 12 -37 13 -48 3 -3 -4 -14 -4 -23 1 -9 4 -32 2
-51 -5 -19 -7 -30 -14 -25 -14 6 -1 -1 -6 -15 -10 l-25 -8 28 -1 c15 -1 53
-10 85 -20 32 -11 81 -23 110 -27 29 -4 55 -11 58 -15 3 -5 16 -9 28 -9 23 0
57 -12 143 -51 51 -23 70 -25 54 -5 -9 11 -9 15 1 19 10 4 10 7 -1 15 -10 8
-11 10 0 14 12 4 13 22 6 117 -3 33 -64 68 -222 125 -135 49 -173 53 -314 35z
m339 -59 c19 -11 28 -19 20 -20 -9 0 -21 5 -28 12 -8 8 -12 8 -12 1 0 -6 -11
-8 -25 -5 -14 2 -25 10 -25 17 0 8 -8 16 -17 18 -10 2 -2 2 17 0 19 -3 50 -13
70 -23z"/>
<path d="M1880 4391 c-34 -7 -33 -8 21 -15 30 -4 66 -6 80 -3 18 3 16 5 -11 6
-27 1 -31 4 -20 11 12 8 10 9 -10 9 -14 -1 -41 -5 -60 -8z"/>
<path d="M2458 4383 c6 -2 18 -2 25 0 6 3 1 5 -13 5 -14 0 -19 -2 -12 -5z"/>
<path d="M2375 4375 c-5 -2 -47 -14 -92 -25 -88 -24 -116 -41 -128 -80 -7 -24
-7 -24 8 -5 16 20 16 20 11 -1 -5 -19 -2 -21 23 -16 15 2 25 2 22 -2 -6 -6
-32 -12 -71 -15 -10 -1 -26 -63 -21 -78 3 -8 23 -6 71 7 62 17 98 43 87 61 -3
4 -1 11 5 14 6 4 8 16 5 27 -8 24 20 58 48 58 20 0 20 0 1 -22 -10 -12 0 -7
23 12 28 21 55 34 78 35 20 1 39 5 42 9 11 10 -49 6 -109 -8 -32 -8 -58 -11
-58 -8 0 3 -5 1 -12 -6 -7 -7 -20 -12 -30 -12 -11 0 -15 -5 -12 -14 3 -9 -6
-17 -25 -24 -23 -8 -31 -7 -35 3 -8 22 25 42 94 58 150 36 148 35 115 35 -16
0 -34 -1 -40 -3z m-100 -105 c-3 -5 -12 -10 -18 -10 -7 0 -6 4 3 10 19 12 23
12 15 0z m-85 -85 c-7 -8 -19 -15 -27 -15 -13 0 -13 3 -3 15 7 8 19 15 27 15
13 0 13 -3 3 -15z"/>
<path d="M2560 4371 c-8 -6 -18 -7 -22 -5 -4 3 -8 0 -8 -7 0 -8 -5 -7 -17 2
-14 12 -16 12 -11 -1 6 -19 54 -21 69 -4 6 8 16 11 22 7 6 -3 7 -1 3 5 -9 14
-16 15 -36 3z"/>
<path d="M1933 4336 c3 -8 1 -17 -6 -19 -9 -3 -9 -9 1 -26 16 -27 15 -31 -3
-31 -9 0 -15 -9 -15 -21 0 -14 5 -19 15 -16 8 4 17 2 20 -3 4 -6 1 -10 -6 -10
-8 0 -8 -4 1 -15 7 -8 9 -15 4 -15 -5 0 0 -6 10 -12 17 -10 29 -2 93 65 70 74
85 97 62 97 -5 0 -7 -5 -3 -12 5 -8 2 -9 -12 -4 -19 8 -142 36 -158 36 -4 0
-6 -6 -3 -14z m138 -47 c-16 -6 -28 -6 -35 1 -7 7 1 10 25 9 32 0 33 -1 10
-10z"/>
<path d="M2225 4311 c-3 -5 -1 -12 4 -15 5 -3 11 1 15 9 6 16 -9 21 -19 6z"/>
<path d="M2970 4280 c0 -5 5 -10 11 -10 5 0 7 5 4 10 -3 6 -8 10 -11 10 -2 0
-4 -4 -4 -10z"/>
<path d="M2442 4223 c-24 -12 -30 -18 -20 -24 9 -6 9 -9 1 -9 -6 0 -14 4 -17
9 -7 10 -54 2 -62 -10 -7 -12 77 -11 96 1 11 7 11 10 2 10 -7 0 -10 5 -7 10 4
6 10 8 13 6 4 -2 18 2 32 10 35 19 2 17 -38 -3z"/>
<path d="M3198 4104 c-4 -94 -11 -98 -104 -63 -155 57 -228 79 -340 103 -139
30 -160 31 -274 12 -76 -13 -159 -24 -245 -30 -16 -2 -37 -5 -45 -9 -20 -7
-67 -18 -112 -24 -21 -3 -38 -9 -38 -14 0 -13 -42 -53 -58 -55 -7 -2 -16 4
-19 12 -3 8 -9 11 -14 8 -18 -10 -49 -13 -49 -3 0 6 -6 6 -18 0 -10 -5 -29
-11 -43 -13 -13 -2 -37 -12 -52 -23 -24 -15 -28 -24 -25 -52 5 -38 1 -42 -11
-11 -6 16 -9 18 -13 6 -3 -8 2 -32 13 -54 10 -21 18 -47 19 -56 0 -10 6 -18
14 -18 8 0 17 -6 19 -12 4 -9 6 -8 7 2 0 8 21 28 46 43 26 17 53 45 64 67 21
42 40 59 40 38 0 -8 -14 -33 -31 -56 -17 -23 -26 -42 -20 -42 13 0 79 38 114
66 15 13 33 21 40 18 7 -2 45 9 85 26 39 16 79 31 89 33 33 5 52 22 57 50 2
15 0 27 -5 27 -5 0 -9 -4 -9 -10 0 -5 -5 -10 -11 -10 -5 0 -7 5 -4 10 3 6 1
10 -4 10 -6 0 -11 -7 -11 -15 0 -12 -5 -13 -26 -5 -21 9 -29 7 -40 -7 -12 -17
-13 -17 -10 2 4 26 57 41 211 60 111 14 160 21 160 25 0 1 15 3 33 6 l33 4 -5
-50 c-6 -65 10 -65 19 -1 5 35 11 48 20 45 8 -4 11 -19 7 -50 -3 -29 -1 -44 7
-44 6 0 11 17 11 38 0 21 3 41 6 45 3 3 31 -3 62 -13 32 -10 75 -23 97 -29 22
-6 50 -13 63 -16 12 -4 22 -11 22 -16 0 -12 -23 -12 -35 0 -6 5 -38 12 -72 15
-65 5 -93 -7 -93 -40 0 -8 -8 -14 -17 -14 -10 -1 0 -9 22 -20 49 -24 59 -25
51 -4 -5 13 4 15 67 12 39 -2 75 -7 78 -11 4 -5 18 -10 33 -10 14 -1 26 -5 26
-10 0 -4 11 -12 25 -17 39 -15 205 -98 247 -123 56 -34 127 -91 128 -102 0 -5
14 -18 30 -27 29 -17 30 -16 30 3 0 12 4 17 11 13 6 -3 8 -15 5 -27 -3 -12 5
-34 20 -56 27 -40 29 -36 12 21 -9 31 -9 50 1 89 12 48 12 52 -9 71 -24 22
-20 38 5 18 13 -10 15 -9 15 7 0 21 -48 73 -68 73 -6 0 -25 15 -42 33 -17 17
-30 28 -29 22 4 -23 -2 -35 -16 -35 -8 0 -15 8 -15 17 0 13 -3 14 -12 5 -7 -7
-17 -8 -30 -1 -15 8 -18 6 -18 -14 0 -18 -5 -23 -25 -22 -14 0 -29 5 -33 10
-4 6 -16 12 -27 13 -11 2 -22 6 -24 8 -9 8 42 52 66 59 21 5 24 11 21 35 -5
30 6 41 15 18 3 -8 6 -5 6 5 1 23 -23 48 -41 44 -7 -2 -10 -2 -6 0 5 3 3 14
-4 26 -6 12 -10 24 -9 25 2 2 0 6 -3 9 -3 3 -6 -30 -8 -73z m-1046 -51 c-6 -3
-9 -10 -6 -16 4 -7 1 -7 -7 1 -12 11 -12 14 1 22 8 5 17 6 20 3 3 -3 -1 -8 -8
-10z m864 -18 c38 -14 70 -25 71 -25 2 0 3 -7 3 -15 0 -8 -7 -15 -15 -15 -8 0
-15 6 -15 13 0 9 -2 9 -8 0 -10 -15 -67 -2 -67 15 0 7 -4 12 -10 13 -18 2 -45
19 -45 29 0 14 10 13 86 -15z m-956 5 c-18 -12 -40 -13 -40 -2 0 4 12 9 28 10
21 1 23 0 12 -8z m1370 -130 c8 -5 11 -10 5 -10 -5 0 -17 5 -25 10 -8 5 -10
10 -5 10 6 0 17 -5 25 -10z m-1641 -50 c0 -9 -4 -8 -9 5 -5 11 -9 27 -9 35 0
9 4 8 9 -5 5 -11 9 -27 9 -35z"/>
<path d="M3346 4118 c-18 -20 -17 -21 13 -51 41 -42 61 -26 36 27 -22 47 -28
49 -49 24z"/>
<path d="M3411 4103 c7 -12 15 -20 18 -17 3 2 -3 12 -13 22 -17 16 -18 16 -5
-5z"/>
<path d="M2318 4071 c10 -6 10 -10 -3 -21 -8 -7 -15 -20 -15 -29 0 -14 2 -14
10 -1 5 8 12 11 16 7 4 -4 13 1 19 10 10 13 10 20 -1 30 -7 7 -19 13 -26 13
-11 0 -11 -2 0 -9z"/>
<path d="M3280 4070 c0 -5 4 -10 9 -10 6 0 13 5 16 10 3 6 -1 10 -9 10 -9 0
-16 -4 -16 -10z"/>
<path d="M2691 4054 c0 -11 3 -14 6 -6 3 7 2 16 -1 19 -3 4 -6 -2 -5 -13z"/>
<path d="M3432 4049 c2 -7 10 -15 17 -17 8 -3 12 1 9 9 -2 7 -10 15 -17 17 -8
3 -12 -1 -9 -9z"/>
<path d="M3300 4031 c0 -13 28 -33 41 -29 6 2 0 12 -15 21 -14 10 -26 13 -26
8z"/>
<path d="M2444 4011 c4 -5 1 -12 -4 -14 -6 -3 -5 -4 2 -3 15 3 23 26 8 26 -6
0 -9 -4 -6 -9z"/>
<path d="M2470 4010 c0 -6 7 -10 15 -10 8 0 15 2 15 4 0 2 -7 6 -15 10 -8 3
-15 1 -15 -4z"/>
<path d="M3450 4012 c0 -5 6 -17 14 -28 19 -25 31 -12 14 15 -13 21 -28 28
-28 13z"/>
<path d="M48 4003 c7 -3 16 -2 19 1 4 3 -2 6 -13 5 -11 0 -14 -3 -6 -6z"/>
<path d="M2600 4001 c0 -5 -8 -12 -17 -14 -10 -3 5 -5 32 -5 28 0 43 2 35 5
-8 3 -23 10 -32 15 -11 5 -18 5 -18 -1z"/>
<path d="M2690 3980 c0 -5 12 -10 28 -9 24 0 25 1 7 9 -27 12 -35 12 -35 0z"/>
<path d="M2285 3970 c-3 -5 -19 -7 -34 -4 -16 3 -39 0 -52 -7 -13 -7 -27 -12
-31 -11 -3 1 -9 -5 -12 -13 -7 -20 18 -19 34 0 7 8 16 12 21 10 12 -8 99 16
99 26 0 12 -17 11 -25 -1z"/>
<path d="M96 3958 c5 -8 -5 -9 -39 -5 -45 6 -72 -5 -41 -17 23 -9 114 -7 114
2 0 11 -22 32 -33 32 -4 0 -5 -5 -1 -12z"/>
<path d="M3496 3927 c3 -10 9 -15 12 -12 3 3 0 11 -7 18 -10 9 -11 8 -5 -6z"/>
<path d="M2099 3912 c-13 -10 -46 -27 -74 -37 -27 -10 -56 -27 -63 -37 -7 -10
-24 -18 -37 -18 -13 0 -29 -8 -34 -17 -6 -10 -11 -15 -11 -10 0 4 -17 -1 -37
-12 -40 -20 -133 -124 -133 -147 0 -8 -4 -14 -10 -14 -5 0 -9 -12 -9 -27 1
-17 3 -21 6 -10 2 9 9 17 15 17 6 0 8 -10 5 -22 -6 -20 -3 -19 22 7 16 17 29
32 29 35 -1 22 3 30 11 26 5 -3 11 3 14 14 3 11 14 20 25 20 11 0 26 8 33 17
12 15 12 16 -1 8 -9 -5 -8 0 4 13 21 25 36 31 16 7 -7 -8 -8 -15 -3 -15 15 0
32 21 27 34 -2 6 9 19 26 29 16 10 30 22 30 26 0 5 16 16 35 25 21 10 33 22
29 28 -4 7 -2 8 5 4 6 -4 24 2 40 13 16 12 33 21 39 21 12 0 37 29 30 35 -3 3
-16 -3 -29 -13z"/>
<path d="M2975 3920 c3 -5 8 -10 11 -10 2 0 4 5 4 10 0 6 -5 10 -11 10 -5 0
-7 -4 -4 -10z"/>
<path d="M3015 3910 c-3 -5 -1 -10 4 -10 6 0 11 5 11 10 0 6 -2 10 -4 10 -3 0
-8 -4 -11 -10z"/>
<path d="M3060 3881 c14 -11 28 -21 32 -21 14 0 173 -118 223 -165 30 -29 36
-37 15 -21 -19 15 -45 32 -57 38 -13 6 -23 15 -23 19 0 5 -10 14 -22 20 -13 6
11 -22 52 -63 108 -106 151 -157 205 -238 26 -39 49 -69 52 -66 3 2 0 13 -6
24 -7 14 -7 36 1 76 9 43 9 59 0 68 -9 9 -12 8 -13 -7 -1 -31 -7 -56 -14 -63
-4 -4 -4 16 0 45 l7 52 -54 54 c-29 30 -66 63 -83 73 -16 10 -34 24 -38 31 -4
7 -16 13 -26 13 -10 0 -28 11 -41 25 -13 14 -29 25 -36 25 -7 0 -18 8 -23 18
-7 11 -11 12 -11 4 0 -10 -3 -10 -15 2 -8 8 -15 18 -15 23 0 4 -9 14 -20 21
-17 10 -20 10 -21 -5 0 -15 -3 -14 -11 5 -6 12 -19 22 -29 22 -9 0 -26 3 -36
6 -13 4 -11 0 7 -15z"/>
<path d="M2060 3850 c-9 -6 -10 -10 -3 -10 6 0 15 5 18 10 8 12 4 12 -15 0z"/>
<path d="M3520 3835 c0 -13 -7 -45 -15 -69 -9 -27 -13 -56 -9 -73 7 -25 8 -23
21 23 18 65 25 144 13 144 -6 0 -10 -11 -10 -25z"/>
<path d="M1962 3791 c-22 -16 -44 -35 -48 -42 -7 -12 22 8 76 50 38 31 18 25
-28 -8z"/>
<path d="M1781 3784 c0 -11 3 -14 6 -6 3 7 2 16 -1 19 -3 4 -6 -2 -5 -13z"/>
<path d="M3099 3756 c27 -29 33 -32 25 -13 -2 7 -14 19 -27 26 -21 13 -21 12
2 -13z"/>
<path d="M3172 3710 c7 -11 19 -22 28 -25 8 -4 4 5 -9 19 -29 31 -36 33 -19 6z"/>
<path d="M3215 3660 c-3 -6 1 -7 9 -4 18 7 21 14 7 14 -6 0 -13 -4 -16 -10z"/>
<path d="M3511 3633 c-1 -17 4 -35 9 -38 11 -7 11 9 0 45 -8 24 -8 24 -9 -7z"/>
<path d="M3276 3615 c4 -8 10 -12 15 -9 11 6 2 24 -11 24 -5 0 -7 -7 -4 -15z"/>
<path d="M1690 3544 c0 -8 5 -12 10 -9 6 4 8 11 5 16 -9 14 -15 11 -15 -7z"/>
<path d="M3370 3510 c0 -5 5 -10 10 -10 6 0 10 5 10 10 0 6 -4 10 -10 10 -5 0
-10 -4 -10 -10z"/>
<path d="M3400 3470 c0 -5 9 -14 20 -20 11 -6 19 -14 18 -18 -2 -8 42 -82 49
-82 6 0 -8 44 -17 50 -4 3 -14 19 -23 36 -16 31 -47 53 -47 34z"/>
<path d="M3490 3338 c0 -2 14 -30 30 -62 17 -32 30 -65 30 -72 0 -8 5 -14 10
-14 15 0 12 23 -5 46 -8 10 -15 27 -15 37 0 9 -4 17 -10 17 -5 0 -9 3 -8 8 2
12 -14 42 -23 42 -5 0 -9 -1 -9 -2z"/>
<path d="M1362 3019 c-13 -5 -20 -14 -17 -20 5 -7 13 -4 26 7 10 9 19 19 19
21 0 4 0 4 -28 -8z"/>
<path d="M1423 2995 c0 -8 4 -12 9 -9 5 3 6 10 3 15 -9 13 -12 11 -12 -6z"/>
<path d="M1511 2979 c5 -11 17 -15 34 -11 40 7 38 20 -4 24 -34 3 -38 1 -30
-13z"/>
<path d="M1560 2950 l-25 -6 29 -8 c32 -8 38 -5 28 10 -4 6 -18 8 -32 4z"/>
<path d="M260 2870 c0 -5 5 -10 11 -10 5 0 7 5 4 10 -3 6 -8 10 -11 10 -2 0
-4 -4 -4 -10z"/>
<path d="M1620 2840 c0 -5 5 -10 10 -10 6 0 10 5 10 10 0 6 -4 10 -10 10 -5 0
-10 -4 -10 -10z"/>
<path d="M1575 2800 c-3 -5 -1 -10 4 -10 6 0 11 5 11 10 0 6 -2 10 -4 10 -3 0
-8 -4 -11 -10z"/>
<path d="M1619 2768 c-1 -7 -1 -21 0 -30 2 -12 -3 -16 -13 -12 -9 3 -16 2 -16
-4 0 -6 7 -9 16 -8 20 3 41 36 23 36 -8 0 -8 4 1 15 9 10 9 15 1 15 -6 0 -12
-6 -12 -12z"/>
<path d="M3520 2713 c0 -5 5 -15 10 -23 8 -12 10 -11 10 8 0 12 -4 22 -10 22
-5 0 -10 -3 -10 -7z"/>
<path d="M1635 2619 c-4 -6 -5 -12 -2 -15 2 -3 7 2 10 11 7 17 1 20 -8 4z"/>
<path d="M2315 2490 c-7 -12 -10 -11 45 -15 41 -3 43 -2 26 11 -23 16 -62 19
-71 4z"/>
<path d="M2284 2366 c-10 -8 -16 -17 -13 -20 3 -3 14 3 24 14 21 23 17 26 -11
6z"/>
<path d="M2287 2332 c-9 -10 -13 -23 -8 -30 5 -9 11 -5 21 13 17 31 9 41 -13
17z"/>
<path d="M2390 2340 c-12 -8 -10 -10 8 -10 13 0 20 4 17 10 -7 12 -6 12 -25 0z"/>
<path d="M2224 2329 c-8 -14 14 -19 25 -6 8 10 7 14 -5 14 -8 0 -17 -4 -20 -8z"/>
<path d="M2304 2295 c-46 -48 -57 -55 -47 -27 6 15 5 16 -12 2 -17 -14 -17
-13 -10 9 4 15 3 21 -3 17 -5 -3 -12 -16 -14 -29 -3 -18 0 -24 11 -23 9 1 17
-8 19 -21 3 -17 0 -21 -12 -17 -9 3 -13 10 -10 15 3 5 0 9 -6 9 -11 0 -4 -42
11 -70 7 -12 8 -11 9 5 0 11 4 16 8 10 4 -5 14 -11 22 -13 12 -3 12 -1 3 9 -9
9 -7 16 8 32 10 11 19 28 19 36 0 9 5 23 11 31 8 12 9 10 4 -7 -3 -13 -3 -23
2 -23 10 0 35 61 28 69 -3 2 -5 -1 -5 -7 0 -7 -7 -12 -17 -12 -12 0 -8 7 13
25 16 14 25 25 20 25 -4 0 -28 -20 -52 -45z"/>
<path d="M2190 2313 c-16 -7 -51 -48 -61 -72 -6 -14 -8 -14 -14 2 -5 12 0 26
16 44 l24 26 -40 -25 c-31 -20 -39 -31 -37 -49 2 -13 9 -28 14 -34 8 -7 9 -6
4 3 -6 11 5 17 27 13 4 -1 22 15 40 35 30 34 52 65 45 63 -2 0 -10 -3 -18 -6z
m-90 -53 c0 -5 -5 -10 -11 -10 -5 0 -7 5 -4 10 3 6 8 10 11 10 2 0 4 -4 4 -10z"/>
<path d="M2358 2295 c-3 -14 -2 -27 2 -30 9 -6 31 41 23 49 -12 12 -21 5 -25
-19z"/>
<path d="M2390 2281 c-6 -12 -7 -21 -1 -21 10 0 24 30 17 37 -2 3 -9 -5 -16
-16z"/>
<path d="M2570 2274 c0 -8 5 -12 10 -9 6 4 8 11 5 16 -9 14 -15 11 -15 -7z"/>
<path d="M2620 2270 c6 -11 13 -20 16 -20 2 0 0 9 -6 20 -6 11 -13 20 -16 20
-2 0 0 -9 6 -20z"/>
<path d="M2595 2235 c6 -33 34 -76 53 -83 8 -2 12 7 11 25 0 15 -3 22 -6 16
-8 -21 -22 -15 -16 7 4 13 0 20 -9 20 -8 0 -20 10 -27 23 -11 20 -11 20 -6 -8z"/>
<path d="M2366 2234 c-3 -9 -6 -23 -6 -32 0 -15 2 -15 10 -2 8 12 10 12 10 -5
0 -15 2 -17 9 -6 9 14 4 48 -9 56 -4 3 -11 -2 -14 -11z"/>
<path d="M2430 2202 c-8 -4 -16 -15 -18 -24 -2 -14 4 -18 26 -18 26 0 29 3 24
25 -5 26 -8 28 -32 17z"/>
<path d="M2301 2184 c0 -11 3 -14 6 -6 3 7 2 16 -1 19 -3 4 -6 -2 -5 -13z"/>
<path d="M2340 2184 c0 -16 -2 -17 -10 -4 -6 9 -10 10 -10 3 0 -19 20 -26 26
-8 4 9 4 19 0 22 -3 4 -6 -2 -6 -13z"/>
<path d="M2580 2165 c0 -15 6 -25 14 -25 8 0 21 -7 29 -15 12 -12 16 -12 20
-1 5 11 -42 66 -57 66 -3 0 -6 -11 -6 -25z"/>
<path d="M1981 2054 c0 -11 3 -14 6 -6 3 7 2 16 -1 19 -3 4 -6 -2 -5 -13z"/>
<path d="M2010 2035 c-7 -9 -11 -17 -9 -20 3 -2 10 5 17 15 14 24 10 26 -8 5z"/>
<path d="M3083 1922 c-3 -12 -9 -19 -14 -16 -5 3 -9 0 -9 -5 0 -6 4 -11 10
-11 12 0 34 40 25 48 -3 3 -8 -4 -12 -16z"/>
<path d="M2913 1885 c0 -22 2 -30 4 -17 2 12 2 30 0 40 -3 9 -5 -1 -4 -23z"/>
<path d="M1943 1885 c0 -8 4 -12 9 -9 5 3 6 10 3 15 -9 13 -12 11 -12 -6z"/>
<path d="M1890 1835 c0 -9 5 -15 11 -13 6 2 11 8 11 13 0 5 -5 11 -11 13 -6 2
-11 -4 -11 -13z"/>
<path d="M1955 1830 c-3 -5 -2 -10 4 -10 5 0 13 5 16 10 3 6 2 10 -4 10 -5 0
-13 -4 -16 -10z"/>
<path d="M2910 1830 c0 -5 5 -10 11 -10 5 0 7 5 4 10 -3 6 -8 10 -11 10 -2 0
-4 -4 -4 -10z"/>
<path d="M1965 1800 c3 -5 11 -10 16 -10 6 0 7 5 4 10 -3 6 -11 10 -16 10 -6
0 -7 -4 -4 -10z"/>
<path d="M2900 1799 c0 -5 -4 -7 -10 -4 -5 3 -10 2 -10 -4 0 -20 19 -21 30 -1
7 13 7 20 0 20 -5 0 -10 -5 -10 -11z"/>
<path d="M1927 1793 c-11 -10 -8 -43 3 -43 6 0 10 4 10 9 0 5 3 16 6 25 6 16
-7 22 -19 9z"/>
<path d="M2863 1747 c-4 -7 -19 -21 -33 -30 l-24 -17 27 0 c29 0 72 35 62 50
-9 14 -23 12 -32 -3z"/>
<path d="M958 1733 c23 -2 59 -2 80 0 20 2 1 4 -43 4 -44 0 -61 -2 -37 -4z"/>
<path d="M1093 1723 c9 -2 23 -2 30 0 6 3 -1 5 -18 5 -16 0 -22 -2 -12 -5z"/>
<path d="M1547 1633 c-4 -3 -7 -11 -7 -17 0 -6 5 -5 12 2 6 6 9 14 7 17 -3 3
-9 2 -12 -2z"/>
<path d="M1445 1590 c-4 -6 -11 -7 -17 -4 -7 4 -8 2 -4 -5 6 -9 11 -9 22 0 14
11 18 19 10 19 -3 0 -8 -5 -11 -10z"/>
<path d="M1450 1552 c0 -12 19 -26 26 -19 2 2 -2 10 -11 17 -9 8 -15 8 -15 2z"/>
<path d="M2571 1550 c-1 -8 -4 -26 -7 -40 -5 -22 -4 -23 6 -7 6 10 9 28 7 40
-2 12 -5 15 -6 7z"/>
<path d="M1441 1416 c-8 -10 -9 -16 -1 -21 5 -3 10 1 10 10 0 9 5 13 10 10 6
-3 10 -1 10 4 0 15 -15 14 -29 -3z"/>
<path d="M2389 1363 c-13 -17 -13 -17 6 -3 11 8 22 16 24 17 2 2 0 3 -6 3 -6
0 -17 -8 -24 -17z"/>
<path d="M2520 1330 c0 -5 5 -10 10 -10 6 0 10 5 10 10 0 6 -4 10 -10 10 -5 0
-10 -4 -10 -10z"/>
<path d="M2542 1279 c2 -7 10 -15 17 -17 8 -3 12 1 9 9 -2 7 -10 15 -17 17 -8
3 -12 -1 -9 -9z"/>
<path d="M881 1014 c0 -11 3 -14 6 -6 3 7 2 16 -1 19 -3 4 -6 -2 -5 -13z"/>
<path d="M892 945 c0 -16 2 -22 5 -12 2 9 2 23 0 30 -3 6 -5 -1 -5 -18z"/>
<path d="M903 875 c0 -22 2 -30 4 -17 2 12 2 30 0 40 -3 9 -5 -1 -4 -23z"/>
<path d="M4497 613 c-4 -3 -7 -11 -7 -17 0 -6 5 -5 12 2 6 6 9 14 7 17 -3 3
-9 2 -12 -2z"/>
<path d="M4372 560 c0 -14 2 -19 5 -12 2 6 2 18 0 25 -3 6 -5 1 -5 -13z"/>
<path d="M4122 490 c-16 -26 -15 -30 3 -30 8 0 15 4 15 9 0 5 3 16 6 25 9 23
-9 20 -24 -4z"/>
<path d="M4120 430 c0 -5 5 -10 10 -10 6 0 10 5 10 10 0 6 -4 10 -10 10 -5 0
-10 -4 -10 -10z"/>
<path d="M1465 339 c6 -16 4 -20 -6 -13 -12 6 -12 5 0 -9 16 -20 22 -22 19 -4
-2 6 2 11 7 10 6 -1 12 7 12 18 1 13 -5 19 -18 19 -16 0 -19 -4 -14 -21z"/>
<path d="M4096 345 c4 -8 7 -15 9 -15 2 0 5 7 9 15 3 9 0 15 -9 15 -9 0 -12
-6 -9 -15z"/>
<path d="M1418 263 c7 -3 16 -2 19 1 4 3 -2 6 -13 5 -11 0 -14 -3 -6 -6z"/>
<path d="M1386 217 c3 -10 9 -15 12 -12 3 3 0 11 -7 18 -10 9 -11 8 -5 -6z"/>
<path d="M3356 104 c-42 -53 -75 -98 -73 -100 2 -3 68 -3 146 -2 l143 3 -57
85 c-32 47 -63 91 -69 98 -9 9 -29 -9 -90 -84z"/>
<path d="M1540 86 c0 -2 8 -10 18 -17 15 -13 16 -12 3 4 -13 16 -21 21 -21 13z"/>
<path d="M1650 60 c-12 -8 -10 -10 8 -10 13 0 20 4 17 10 -7 12 -6 12 -25 0z"/>
<path d="M1710 20 c0 -5 5 -10 11 -10 5 0 7 5 4 10 -3 6 -8 10 -11 10 -2 0 -4
-4 -4 -10z"/>
<path d="M4320 14 c0 -8 5 -12 10 -9 6 4 8 11 5 16 -9 14 -15 11 -15 -7z"/>
<path d="M1568 3 c7 -3 16 -2 19 1 4 3 -2 6 -13 5 -11 0 -14 -3 -6 -6z"/>
<path d="M1658 3 c7 -3 16 -2 19 1 4 3 -2 6 -13 5 -11 0 -14 -3 -6 -6z"/>
</g>
</svg>
