<?xml version="1.0" standalone="no"?>
<!DOCTYPE svg PUBLIC "-//W3C//DTD SVG 20010904//EN"
 "http://www.w3.org/TR/2001/REC-SVG-20010904/DTD/svg10.dtd">
<svg version="1.0" xmlns="http://www.w3.org/2000/svg"
 width="126.000000pt" height="126.000000pt" viewBox="0 0 126.000000 126.000000"
 preserveAspectRatio="xMidYMid meet">
<metadata>
Created by potrace 1.10, written by Peter Selinger 2001-2011
</metadata>
<g transform="translate(0.000000,126.000000) scale(0.100000,-0.100000)"
fill="#000000" stroke="none">
<path d="M576 1252 c-10 -17 -8 -88 3 -116 10 -26 10 -27 -4 -16 -8 7 -12 16
-9 21 3 5 -4 9 -15 9 -12 0 -21 -5 -21 -11 0 -5 5 -7 10 -4 6 3 10 -3 10 -14
0 -13 -5 -19 -14 -15 -12 5 -32 -23 -23 -32 2 -2 27 2 55 8 38 9 52 17 52 30
0 10 -6 18 -13 18 -8 0 -14 12 -14 28 -1 40 -7 102 -9 102 -2 0 -5 -4 -8 -8z"/>
<path d="M623 1241 c-1 -11 5 -22 13 -25 19 -7 18 -42 -1 -50 -8 -3 -15 -10
-15 -16 0 -6 11 -3 25 6 28 18 34 61 11 70 -8 3 -12 12 -9 20 3 8 -1 14 -9 14
-7 0 -14 -9 -15 -19z"/>
<path d="M677 1247 c-3 -8 4 -22 15 -31 10 -9 18 -20 15 -24 -2 -4 -10 -22
-17 -39 -11 -24 -19 -31 -32 -27 -12 3 -18 0 -18 -10 0 -11 9 -16 28 -16 44 0
164 -63 191 -100 19 -27 23 -45 25 -113 1 -73 3 -80 22 -83 24 -4 29 25 7 39
-15 10 -17 37 -3 37 6 0 10 -7 10 -15 0 -8 5 -15 10 -15 15 0 12 11 -7 32 -11
13 -12 18 -3 18 10 0 10 3 0 15 -15 18 -5 49 11 39 8 -4 9 -3 5 5 -6 9 -11 9
-23 -1 -14 -11 -15 -10 -8 12 4 14 12 28 17 31 7 4 7 9 0 13 -5 3 -12 -1 -16
-9 -3 -8 -10 -15 -15 -15 -6 0 -8 6 -5 14 3 7 -6 26 -20 41 -14 15 -26 22 -26
15 0 -7 -11 -2 -25 11 -13 13 -25 30 -25 37 0 7 -4 11 -9 7 -5 -3 -12 -1 -16
5 -3 5 -12 10 -18 10 -7 0 -6 -4 3 -10 9 -6 10 -10 3 -10 -6 0 -15 5 -18 10
-4 6 -15 8 -26 5 -23 -8 -27 20 -4 32 8 5 16 21 17 36 1 15 6 27 10 27 4 0 8
4 8 10 0 5 -7 7 -16 3 -10 -4 -22 1 -29 11 -10 13 -14 14 -18 3z"/>
<path d="M1089 1243 c-6 -7 -15 -11 -19 -8 -5 3 -12 0 -16 -6 -5 -8 -3 -9 6
-4 10 6 12 4 7 -8 -3 -10 -2 -17 3 -17 6 0 10 -7 10 -16 0 -8 5 -12 10 -9 6 3
7 17 4 31 -5 20 -2 26 15 31 11 3 21 9 21 12 0 13 -30 8 -41 -6z"/>
<path d="M1143 1232 c-6 -11 -8 -25 -3 -32 7 -11 11 -10 25 3 9 10 12 17 6 17
-5 0 -11 7 -13 15 -2 13 -5 12 -15 -3z"/>
<path d="M757 1225 c-8 -18 1 -45 15 -45 5 0 6 -5 3 -10 -4 -6 -11 -8 -16 -5
-5 4 -9 2 -9 -2 0 -5 9 -14 19 -20 16 -10 20 -9 25 10 3 11 0 27 -6 35 -7 8
-13 21 -14 29 -4 22 -11 26 -17 8z"/>
<path d="M0 1163 c0 -39 3 -53 9 -43 6 8 7 18 4 22 -2 5 0 14 5 21 9 11 -1 57
-13 57 -3 0 -5 -26 -5 -57z"/>
<path d="M1000 1191 c0 -22 57 -74 71 -65 12 7 -8 34 -26 34 -13 0 -30 28 -27
43 1 4 -2 7 -8 7 -5 0 -10 -9 -10 -19z"/>
<path d="M1020 1103 c0 -12 -6 -24 -12 -26 -7 -3 -3 -6 9 -6 12 -1 23 -7 26
-13 2 -7 2 1 -1 17 -5 37 -22 58 -22 28z"/>
<path d="M1078 1113 c-22 -6 -24 -23 -2 -23 8 0 12 -5 8 -11 -4 -7 1 -7 15 1
18 9 20 14 10 26 -6 8 -12 13 -13 13 0 -1 -9 -3 -18 -6z"/>
<path d="M1127 1113 c-3 -5 -2 -15 4 -23 6 -10 9 -11 9 -2 0 6 5 12 10 12 7 0
5 -11 -3 -26 -14 -26 -67 -44 -67 -23 0 5 -4 9 -9 9 -5 0 -7 -9 -4 -20 3 -11
10 -20 15 -20 6 0 5 -6 -2 -15 -7 -8 -17 -12 -24 -8 -6 3 -8 3 -4 -2 4 -4 2
-15 -4 -23 -19 -22 -17 -38 3 -38 13 0 18 5 14 14 -4 11 0 13 16 9 17 -5 20
-2 16 13 -3 12 5 31 19 47 13 15 24 24 24 18 0 -5 5 -2 11 8 5 9 17 17 24 17
8 0 15 5 15 12 0 6 -3 8 -7 5 -3 -4 -11 3 -17 15 -12 24 -31 34 -39 21z"/>
<path d="M455 1080 c-3 -5 -2 -10 3 -10 5 0 12 -9 15 -21 6 -24 30 -21 35 4 2
10 -3 17 -12 17 -9 0 -16 5 -16 10 0 6 -4 10 -9 10 -6 0 -13 -4 -16 -10z"/>
<path d="M548 1059 c-22 -12 -23 -29 -3 -29 8 0 15 6 15 14 0 8 8 17 18 19 12
3 13 5 2 6 -8 0 -23 -4 -32 -10z"/>
<path d="M664 1042 c3 -5 20 -12 38 -15 18 -3 41 -8 51 -12 11 -5 17 -2 17 6
0 8 -10 14 -22 15 -13 0 -38 4 -57 8 -21 5 -31 5 -27 -2z"/>
<path d="M984 1036 c-9 -9 -8 -17 3 -32 7 -10 13 -28 11 -39 -1 -11 2 -20 7
-20 6 0 11 13 11 29 1 16 8 33 15 38 10 7 8 8 -8 5 -13 -3 -23 -1 -23 4 0 5 5
9 11 9 5 0 7 5 4 10 -8 13 -18 12 -31 -4z"/>
<path d="M1176 1026 c-12 -47 11 -106 29 -76 3 6 2 10 -4 10 -11 0 -10 59 2
78 5 7 3 12 -6 12 -8 0 -18 -11 -21 -24z"/>
<path d="M605 1025 c-5 -2 -31 -6 -58 -10 -26 -3 -45 -10 -42 -16 6 -9 -6 -12
-42 -10 -25 2 -37 -13 -29 -36 5 -13 9 -13 22 -2 9 7 23 14 31 15 30 5 44 14
37 26 -5 7 0 9 14 6 12 -3 22 -2 24 2 3 8 49 13 95 11 16 -1 21 -6 17 -16 -5
-13 -2 -14 20 -5 16 6 34 6 48 0 13 -5 19 -9 13 -9 -5 -1 14 -15 43 -32 30
-17 56 -29 58 -27 7 8 -37 48 -47 43 -16 -11 -31 5 -19 21 7 7 10 19 7 26 -4
8 -6 7 -6 -4 -1 -22 -7 -22 -57 -4 -44 15 -114 27 -129 21z"/>
<path d="M535 936 c-55 -26 -116 -80 -137 -123 -12 -24 -12 -35 -1 -75 12 -40
19 -48 54 -62 21 -9 53 -16 70 -16 35 0 75 35 85 74 8 35 33 33 40 -4 4 -16
17 -42 31 -56 22 -24 30 -26 83 -22 77 6 109 32 103 85 l-4 36 20 -24 c10 -13
23 -21 27 -16 4 4 -6 22 -22 40 -17 17 -36 45 -44 61 -8 15 -34 46 -59 67 -72
64 -159 76 -246 35z m109 -17 c-4 -8 5 -9 33 -5 37 7 41 4 103 -54 l65 -60
-65 2 c-36 1 -86 -2 -113 -6 -36 -7 -61 -4 -103 9 -39 12 -70 15 -106 11 -34
-5 -48 -4 -43 4 3 5 14 10 24 10 10 0 31 11 47 25 16 14 35 25 42 25 6 0 12 3
12 8 0 4 12 15 28 24 31 20 87 25 76 7z m-77 -133 c2 -2 -10 -17 -27 -34 -26
-27 -28 -32 -15 -45 12 -13 11 -15 -10 -13 -14 0 -25 7 -25 14 0 6 -9 12 -20
12 -11 0 -20 -6 -20 -12 -1 -7 -9 -2 -20 10 -19 23 -22 46 -7 69 6 10 134 10
144 -1z m269 -4 c14 -9 14 -41 0 -39 -6 1 -10 -6 -10 -16 2 -17 1 -17 -17 -1
-21 19 -24 9 -9 -30 12 -32 6 -32 -51 -4 -37 19 -41 23 -21 26 29 4 28 16 -2
35 -21 14 -25 14 -30 2 -7 -19 -36 -20 -36 -2 0 8 10 19 23 25 25 12 136 15
153 4z m-108 -100 c2 -7 -2 -12 -8 -12 -12 0 -40 24 -40 34 0 10 44 -11 48
-22z"/>
<path d="M1090 865 c0 -14 -12 -20 -33 -16 -5 1 -6 -3 -3 -8 12 -19 56 1 56
25 0 8 -4 14 -10 14 -5 0 -10 -7 -10 -15z"/>
<path d="M1067 797 c-3 -9 2 -17 14 -20 23 -6 36 10 20 26 -8 8 -11 7 -11 -3
0 -12 -2 -12 -9 -2 -7 11 -9 11 -14 -1z"/>
<path d="M1175 779 c-5 -15 -10 -18 -18 -10 -13 13 -27 14 -27 2 0 -5 9 -13
20 -16 11 -4 17 -11 14 -17 -4 -6 -1 -9 7 -6 8 3 15 14 17 26 2 13 11 22 20
22 15 0 15 2 2 10 -22 14 -28 12 -35 -11z"/>
<path d="M999 772 c-7 -11 -19 -18 -26 -15 -7 3 -13 -2 -13 -10 0 -10 7 -13
20 -10 11 3 20 11 20 18 0 7 6 12 13 11 15 -1 22 17 8 22 -5 2 -16 -6 -22 -16z"/>
<path d="M1036 752 c-13 -12 -5 -24 13 -19 14 3 18 -1 16 -17 -2 -33 5 -39 26
-20 10 9 16 21 13 25 -11 18 17 8 38 -13 l21 -21 -39 -12 c-21 -6 -48 -17 -60
-23 -16 -8 -24 -8 -34 1 -10 9 -11 9 -6 0 4 -8 -3 -17 -19 -25 -22 -10 -23
-13 -10 -20 10 -6 20 -4 31 6 8 9 21 16 29 16 7 0 15 5 17 12 5 13 38 4 38
-11 0 -5 -9 -13 -20 -16 -26 -8 -26 -22 0 -30 11 -4 18 -11 14 -16 -3 -6 4 -5
15 3 18 11 23 11 30 -1 6 -9 18 -11 40 -6 17 4 29 11 26 16 -4 5 1 6 9 3 9 -3
16 -1 16 5 0 6 -11 13 -24 17 -39 9 -58 38 -52 75 3 20 -1 40 -10 53 -8 11
-14 15 -14 9 0 -7 -11 -10 -27 -8 -16 1 -27 7 -26 11 2 10 -43 15 -51 6z m136
-152 c5 -13 -1 -15 -28 -12 -19 2 -31 8 -28 13 3 5 10 7 15 4 5 -4 9 -2 9 4 0
5 -5 13 -10 16 -6 4 -8 11 -4 16 7 11 36 -15 46 -41z"/>
<path d="M1204 749 c-3 -6 0 -17 7 -25 9 -11 8 -18 -6 -34 -16 -18 -16 -20 5
-50 19 -26 24 -29 38 -18 14 12 13 13 -6 16 -16 3 -20 9 -17 30 2 15 4 31 4
36 1 4 8 6 16 2 9 -3 15 0 15 9 0 8 -5 15 -11 15 -5 0 -8 4 -5 9 3 5 -3 11
-14 14 -11 3 -23 1 -26 -4z"/>
<path d="M995 719 c-4 -6 -14 -8 -22 -5 -8 3 -12 2 -9 -3 3 -4 -1 -16 -8 -26
-11 -16 -11 -21 0 -33 8 -7 11 -18 8 -24 -7 -12 9 -4 34 16 11 8 11 11 -4 16
-17 6 -16 9 9 32 14 14 24 28 20 31 -9 10 -21 8 -28 -4z"/>
<path d="M881 636 c-6 -7 -9 -21 -5 -30 3 -9 2 -16 -4 -16 -10 0 -72 -119 -72
-138 0 -9 30 -23 54 -26 5 -1 11 11 13 27 2 15 -1 27 -7 27 -5 0 -10 -7 -10
-15 0 -8 -4 -15 -10 -15 -12 0 -13 27 -1 34 4 3 11 24 15 46 3 22 10 40 14 40
4 0 18 -16 32 -36 20 -28 41 -41 105 -63 118 -42 141 -53 128 -58 -30 -11 -8
-37 50 -59 9 -3 17 -11 18 -18 0 -6 13 -21 30 -34 22 -18 29 -20 29 -8 0 8 -9
18 -20 21 -23 7 -27 25 -6 25 8 0 16 6 19 13 4 10 -3 12 -23 9 -27 -4 -49 13
-35 26 4 4 10 2 12 -5 2 -7 11 -9 19 -6 11 4 12 9 4 18 -13 15 3 30 20 20 6
-3 10 3 10 14 0 12 -5 21 -11 21 -5 0 -7 -5 -4 -10 4 -6 -7 -13 -24 -16 -16
-4 -32 -12 -35 -20 -6 -15 -46 -19 -46 -5 0 15 30 41 46 41 8 0 14 5 14 10 0
13 -17 13 -25 0 -12 -19 -26 -9 -47 35 -12 25 -25 45 -29 45 -13 0 -20 -33 -9
-44 7 -7 10 -6 10 4 0 22 14 1 18 -26 l3 -26 -27 21 c-14 11 -31 18 -36 15 -5
-3 -20 1 -33 10 -13 9 -31 16 -40 16 -21 0 -75 41 -75 57 0 7 -5 12 -11 11 -6
-2 -14 3 -16 10 -3 6 0 12 7 12 6 0 8 5 5 10 -3 6 -1 10 4 10 6 0 11 9 11 20
0 23 -13 26 -29 6z"/>
<path d="M383 628 c2 -7 -2 -21 -11 -30 -14 -17 -13 -18 8 -18 15 0 20 -4 17
-15 -4 -8 -2 -17 4 -21 6 -3 8 -13 5 -21 -4 -9 1 -17 14 -20 15 -4 20 -14 20
-37 1 -25 3 -28 10 -14 7 12 0 39 -26 102 -20 47 -38 86 -41 86 -2 0 -3 -6 0
-12z"/>
<path d="M633 606 c-13 -6 -23 -14 -23 -18 0 -4 10 -4 23 1 12 4 29 6 37 3 13
-5 13 -3 1 11 -7 10 -14 16 -15 16 0 -1 -11 -6 -23 -13z"/>
<path d="M666 571 c-10 -16 6 -41 26 -41 11 0 18 -5 16 -11 -5 -16 -84 -19
-126 -5 -21 7 -43 11 -49 9 -7 -3 -13 0 -13 6 0 20 -18 12 -23 -10 -5 -17 -3
-19 6 -10 9 9 20 3 47 -29 32 -37 37 -40 60 -30 19 8 20 10 4 7 -13 -3 -25 3
-33 15 -16 26 -3 39 14 15 11 -15 17 -16 34 -8 35 19 45 13 25 -16 l-17 -28
29 19 c16 10 37 28 46 40 10 11 18 15 18 9 0 -21 20 -14 20 6 0 26 -41 56 -52
38 -5 -8 -8 -4 -8 11 0 22 -14 30 -24 13z"/>
<path d="M1120 551 c0 -10 7 -22 16 -25 11 -4 15 -14 12 -31 -6 -27 18 -43 36
-25 8 8 7 11 -3 8 -7 -2 -16 3 -19 11 -3 10 0 12 10 8 9 -3 21 0 27 6 18 18
13 28 -13 21 -18 -4 -26 -1 -30 14 -9 27 -36 37 -36 13z"/>
<path d="M1227 523 c-13 -12 -7 -43 7 -43 8 0 16 -6 19 -12 3 -7 4 -3 4 9 -1
12 -6 21 -12 20 -5 -1 -9 6 -7 16 3 18 0 21 -11 10z"/>
<path d="M333 503 c-12 -8 -51 -25 -85 -36 -49 -17 -66 -29 -78 -52 -8 -17
-50 -64 -93 -104 -54 -52 -77 -81 -77 -97 0 -22 4 -20 45 23 25 25 45 50 45
55 0 5 8 12 18 15 9 4 34 20 54 37 26 22 34 34 26 43 -15 19 20 42 106 70 42
14 76 30 76 35 0 5 -6 6 -12 2 -9 -5 -9 -2 1 9 17 21 3 21 -26 0z"/>
<path d="M407 439 c3 -12 0 -24 -6 -29 -10 -5 -9 -9 3 -13 9 -4 16 -2 16 3 0
5 7 7 15 4 8 -4 15 -1 15 5 0 7 -7 14 -16 18 -8 3 -13 12 -10 19 3 8 -1 14 -8
14 -9 0 -12 -7 -9 -21z"/>
<path d="M786 428 c5 -8 2 -9 -10 -5 -9 4 -15 3 -11 -2 3 -5 -8 -23 -25 -39
-20 -21 -28 -36 -23 -48 5 -14 3 -16 -11 -11 -10 4 -27 0 -39 -8 -15 -11 -17
-15 -6 -15 8 0 21 6 27 12 10 10 11 4 7 -27 -4 -25 -2 -35 3 -27 5 7 13 12 18
11 22 -4 48 2 38 9 -12 8 -25 74 -13 66 10 -6 28 28 22 43 -2 6 0 14 6 17 13
8 42 -4 35 -15 -3 -5 2 -9 11 -9 14 0 13 4 -5 30 -20 29 -39 43 -24 18z"/>
<path d="M480 415 c-7 -9 -8 -15 -2 -15 5 0 13 -16 16 -36 4 -19 14 -38 21
-41 8 -3 12 -9 9 -14 -9 -15 13 -10 26 6 7 8 9 15 4 15 -11 0 -44 57 -44 75 0
21 -16 26 -30 10z"/>
<path d="M893 393 c-7 -2 -13 -17 -13 -31 0 -21 -3 -24 -10 -12 -8 12 -10 12
-16 -3 -10 -28 12 -44 25 -19 12 23 32 72 28 71 -1 0 -8 -3 -14 -6z"/>
<path d="M430 374 c0 -8 5 -12 10 -9 6 3 10 0 10 -7 0 -7 8 -18 18 -25 18 -11
18 -10 3 23 -16 35 -41 46 -41 18z"/>
<path d="M1068 341 c-16 -15 -28 -33 -28 -40 0 -7 -4 -9 -10 -6 -5 3 -10 1
-10 -5 0 -6 -4 -9 -9 -6 -4 3 -6 -6 -3 -19 3 -19 -1 -25 -21 -30 -14 -4 -36
-3 -49 1 -13 4 -27 7 -31 6 -5 -2 -24 2 -43 7 -27 7 -34 7 -34 -5 0 -8 -5 -14
-12 -14 -9 0 -9 -3 0 -12 9 -9 15 -8 25 6 12 16 14 16 40 -8 15 -14 27 -30 27
-36 0 -5 6 -10 13 -10 8 0 7 -4 -3 -10 -26 -17 -116 -12 -131 7 -8 9 -9 14 -3
10 7 -4 18 0 25 9 10 13 10 17 -2 25 -8 5 -21 9 -29 9 -11 0 -12 -2 -2 -8 10
-7 9 -16 -4 -43 -9 -19 -24 -43 -33 -54 -9 -12 -3 -8 13 9 l29 30 18 -25 c11
-13 23 -29 29 -36 17 -20 11 -55 -12 -74 l-21 -19 41 0 c33 0 40 3 36 15 -4 8
-10 15 -15 15 -5 0 -9 11 -9 24 0 14 17 40 45 68 25 25 45 50 45 56 0 11 44
42 59 42 15 0 32 -36 25 -54 -4 -9 -19 -17 -38 -17 -30 -2 -30 -2 -3 -6 20 -3
27 -10 28 -26 0 -12 7 0 16 28 11 37 12 54 4 67 -9 15 -8 18 6 19 11 0 13 3 6
6 -16 6 -17 33 -3 33 6 0 13 8 17 18 10 28 35 52 54 52 12 0 16 5 13 15 -9 22
-26 18 -56 -14z"/>
<path d="M220 250 c-1 -36 -1 -69 1 -75 5 -19 2 -121 -5 -148 -3 -15 -3 -27 2
-27 4 0 13 22 18 50 6 27 8 50 5 50 -3 0 -5 21 -3 47 1 27 -1 75 -6 108 l-10
60 -2 -65z"/>
<path d="M145 235 c8 -16 15 -39 15 -50 0 -11 5 -27 11 -35 8 -12 9 -10 5 10
-3 14 -6 32 -6 41 0 9 -9 27 -20 40 l-20 24 15 -30z"/>
<path d="M709 210 c-1 -3 -3 -27 -4 -55 -2 -42 -1 -46 7 -23 6 16 15 25 23 22
7 -3 16 -1 20 5 3 6 -1 11 -10 11 -8 0 -20 10 -25 23 -5 12 -10 20 -11 17z"/>
<path d="M80 196 c0 -13 45 -86 53 -86 9 0 6 6 -30 59 -13 19 -23 31 -23 27z"/>
<path d="M1127 182 c-19 -21 -50 -92 -44 -99 3 -2 10 11 17 31 6 19 20 46 31
60 23 30 20 35 -4 8z"/>
<path d="M350 167 c0 -34 29 -87 47 -87 17 0 16 15 -2 30 -8 7 -15 20 -15 29
0 10 -7 26 -15 37 -14 18 -14 18 -15 -9z"/>
<path d="M593 136 c4 -11 1 -13 -10 -9 -13 5 -15 2 -9 -13 5 -10 16 -39 25
-64 l16 -45 20 62 c13 39 16 58 8 52 -15 -13 -33 -3 -33 17 0 8 -5 14 -11 14
-6 0 -9 -7 -6 -14z"/>
<path d="M670 136 c0 -8 -3 -21 -6 -30 -4 -11 -1 -16 10 -16 9 0 19 -7 22 -15
4 -8 11 -15 17 -15 6 0 0 11 -13 25 -14 15 -21 31 -17 45 3 11 1 20 -4 20 -5
0 -9 -6 -9 -14z"/>
<path d="M1010 75 c0 -9 -9 -15 -22 -15 -12 0 -18 -3 -15 -7 4 -3 0 -17 -8
-30 -14 -21 -14 -23 0 -23 8 0 15 7 15 15 0 20 10 19 26 -3 12 -15 13 -11 14
31 0 26 -2 47 -5 47 -3 0 -5 -7 -5 -15z"/>
<path d="M687 44 c-12 -12 -8 -24 8 -24 8 0 15 -4 15 -10 0 -5 7 -10 16 -10
15 0 15 2 2 22 -16 24 -31 32 -41 22z"/>
</g>
</svg>
